<svg height="79" viewBox="0 0 213 79" width="213" xmlns="http://www.w3.org/2000/svg" xmlns:xlink="http://www.w3.org/1999/xlink"><defs><path id="a" d="m.7 10.58c2.168-6.668 8.508-10.818 15.217-10.527 2.836 1.758 6.53 2.917 9.893 2.919l.01.006c1.22.889 4.122 3.089 8.705 6.6-1.467 4.995-2.521 8.481-3.163 10.458-1.244 3.826-4.21 7.591-7.361 9.655-2.177 1.426-5.629 1.839-8.28 1.826-1.556-.007-3.706-.752-5.266-1.26-4.608-1.497-7.593-5.265-9.193-9.45-1.2-3.14-1.678-6.79-.56-10.229z"/><path id="b" d="m30.685 21.565c-.473 1.45-1.666 4.882-3.579 10.294-5.203.148-8.844.223-10.923.223-4.023 0-8.52-1.659-11.457-4.017-2.029-1.63-3.488-4.785-4.295-7.31-.373-1.165-.425-2.819-.43-4.27v-1.128c0-4.845 2.661-8.849 6.147-11.663 2.616-2.114 5.94-3.694 9.556-3.694 6.985 0 12.875 4.716 14.693 11.154-.809 3.25-.774 7.143.27 10.357z"/><path id="c" d="m11.777.953c4.608-1.497 9.238-.204 12.993 2.242 2.817 1.835 5.348 4.507 6.466 7.946 2.169 6.675-.531 13.77-6.145 17.473-3.31.25-6.955 1.477-9.664 3.439h-.044c-1.51 0-5.151-.075-10.923-.222-1.75-4.903-2.945-8.343-3.587-10.32-1.244-3.826-1.056-8.616.28-12.138.922-2.433 3.472-4.796 5.624-6.344 1.264-.909 3.44-1.57 5.001-2.076z"/><path id="d" d="m8.944 3.707c3.256-2.365 7.869-3.667 11.63-3.485 2.6.126 5.635 1.821 7.772 3.39 1.255.92 2.556 2.787 3.52 4.114 2.848 3.92 3.049 8.723 1.883 13.049-.875 3.247-2.634 6.479-5.56 8.605-5.666 4.117-13.228 3.751-18.485-.42-1.259-3.095-3.57-6.21-6.295-8.19l-.007-.006c-.466-1.437-1.52-4.923-3.164-10.456 4.123-3.18 7.025-5.38 8.706-6.601z"/><path id="e" d="m15.98.17c4.297 2.938 7.287 5.018 8.968 6.24 3.255 2.365 5.919 6.35 6.909 9.984.683 2.51.009 5.921-.822 8.438-.488 1.478-1.861 3.293-2.826 4.62-2.848 3.92-7.354 5.594-11.828 5.822-3.358.172-6.976-.502-9.902-2.628-5.662-4.114-7.653-11.411-5.318-17.696 2.557-2.155 4.808-5.318 5.85-8.524l.007-.02c1.226-.89 4.214-2.968 8.962-6.237z"/><mask id="f" fill="#fff"><use fill="#fff" fill-rule="evenodd" xlink:href="#a"/></mask><mask id="g" fill="#fff"><use fill="#fff" fill-rule="evenodd" xlink:href="#b"/></mask><mask id="h" fill="#fff"><use fill="#fff" fill-rule="evenodd" xlink:href="#c"/></mask><mask id="i" fill="#fff"><use fill="#fff" fill-rule="evenodd" xlink:href="#d"/></mask><mask id="j" fill="#fff"><use fill="#fff" fill-rule="evenodd" xlink:href="#e"/></mask></defs><g fill="none" fill-rule="evenodd"><g transform="translate(.062 29.11)"><use fill="#71278c" xlink:href="#a"/><path d="m17.658 9.957c.082.003.162.011.236.025.052.01.09.021.126.037.067.03.126.093.162.173.027.062.036.128.044.195l.009.104c.004.077.007.153.008.229.003.153.004.307.004.46v.131l-.003.097-.012.18-.005.061c-.012.166-.016.316-.011.459.002.066.007.133.01.2.006.076.01.152.013.229l.003.129c.002.109.004.222.016.332.014.137.03.274.047.411.017.12.038.225.063.319.025.096.06.197.109.317.046.11.084.211.117.31.026.079.058.172.097.268.014.032.029.065.046.096.019.033.04.064.061.096l.006.009.146.217.094.14c.041.06.079.123.117.186.034.058.073.115.11.17l.014.02.091.13.042.058c.035.05.067.1.1.152l.022.037c.05.08.096.164.14.245.027.047.052.095.08.141.04.072.081.136.123.196l.074.103.06.084c.046.064.09.129.134.194.032.047.061.097.09.146l.031.051c.05.084.105.166.159.246l.079.12c.05.08.1.16.148.24l.077.128c.077.126.158.254.24.38l.171.258.073.109c.06.091.12.187.175.279l.064.104.077.122c.05.08.102.162.15.245l.132.238.096.17c.038.07.08.137.122.205.034.055.069.11.101.166.053.09.104.181.154.273l.062.11.132.226.1.169.018.033c.03.052.062.107.09.162l.097.197.03.061c.043.092.088.186.139.276l.016.03c.022.038.044.078.062.119.025.056.049.116.075.188.024.068.046.137.066.211l.01.037c.016.057.032.116.042.175.01.06.018.12.025.179l.008.064c.01.073.012.14.01.204-.004.081-.017.164-.03.246-.01.069-.03.137-.047.195-.042.14-.1.275-.158.4-.055.122-.136.234-.215.336-.005.01-.012.018-.022.03-.03.04-.062.082-.097.12-.032.036-.07.07-.12.11-.084.065-.182.125-.3.181-.094.045-.203.083-.334.117-.06.016-.124.028-.204.039-.074.038-.139.065-.2.082-.073.021-.15.032-.214.04-.127.016-.257.019-.385.021-.134.002-.269.003-.403.003h-.101l-.134.001c-.074 0-.148 0-.221-.003l-.11-.004c-.11-.004-.22-.008-.329-.01-.246-.003-.496-.016-.738-.027l-.169-.009-.183-.01-.253-.014-.083-.004-.084-.005-.063-.004-.194-.007-.033-.001-.213-.01c-.076-.005-.15-.01-.226-.012-.092-.003-.183-.01-.274-.016l-.16-.01-.092-.006c-.046-.002-.092-.004-.138-.008l-.029-.002-.192-.012c-.14-.006-.288-.01-.44-.01-.077-.002-.155-.002-.232-.005l-.108-.005-.106-.005c-.05-.002-.099-.005-.148-.009l-.072-.005-.244-.01c-.201-.005-.4-.005-.622-.005h-.263c-.142 0-.284.006-.437.02l-.104.011-.104.011c-.072.007-.148.011-.231.014l-.185.004c-.084.001-.17.002-.254.007l-.166.007-.056.003-.125.007-.097.005c-.148.007-.296.011-.438.012l-.084.002-.174.002c-.058 0-.117-.001-.175-.004-.167-.008-.314-.013-.452-.016-.079 0-.157-.005-.236-.009l-.19-.008c-.15-.004-.298-.005-.447-.006h-.204c-.046-.001-.092-.004-.137-.006l-.077-.004-.211-.014-.08-.006-.123-.01c-.144-.014-.297-.033-.44-.078-.114-.037-.26-.09-.386-.183-.123-.092-.224-.183-.308-.278-.043-.048-.086-.102-.14-.173-.039-.05-.079-.104-.111-.161-.035-.06-.058-.129-.081-.194l-.007-.02-.016-.045-.05-.146c-.046-.138-.08-.278-.102-.414-.023-.143-.03-.291-.02-.441.01-.132.042-.273.095-.419.03-.082.059-.148.09-.206.026-.049.054-.096.082-.143l.022-.037c.035-.058.07-.118.103-.178l.027-.048c.024-.045.05-.091.078-.135l.042-.061c.027-.039.054-.077.079-.117l.068-.115.038-.065.049-.081c.062-.102.126-.208.181-.316.06-.12.131-.249.216-.392.023-.04.05-.078.075-.116l.039-.057c.045-.07.088-.14.13-.21l.098-.17c.037-.068.075-.135.115-.201l.013-.02c.032-.053.064-.105.098-.156.045-.066.08-.122.11-.176.034-.06.067-.126.103-.2.036-.076.075-.15.115-.224.027-.05.056-.098.086-.147l.027-.044c.026-.042.054-.084.082-.125l.041-.061c.067-.103.132-.206.197-.31l.04-.064c.037-.058.071-.117.106-.175.038-.065.076-.13.116-.193l.107-.173.127-.202.047-.074.077-.12.017-.026c.03-.05.063-.1.098-.147l.068-.092c.066-.088.135-.18.198-.274.04-.058.078-.117.116-.177l.026-.04c.03-.046.06-.093.088-.141l.107-.2.081-.152c.033-.06.072-.12.109-.177.036-.054.073-.111.105-.17l.02-.038c.052-.093.105-.188.148-.286.022-.056.047-.11.072-.164l.028-.064c.02-.044.042-.087.063-.13l.045-.093c.03-.08.052-.165.067-.26.006-.049.01-.097.013-.146.007-.132.008-.267.008-.398v-.036c.002-.14.002-.281.002-.422 0-.043-.003-.086-.006-.128l-.004-.073c-.003-.072-.006-.144-.007-.217l-.004-.432v-.67l-.006-.17-.002-.046c-.005-.034-.008-.068-.01-.103-.001-.06-.004-.119-.01-.178l-.01-.19c-.001-.048-.002-.112.004-.176.006-.06.014-.13.029-.198l.004-.018c.009-.038.017-.075.024-.113l.007-.085v-.013c.003-.032.005-.065.015-.095.011-.032.026-.07.05-.105.024-.034.06-.063.104-.084l.012-.006c.022-.01.046-.021.07-.028.045-.013.094-.022.147-.029.122-.014.252-.023.4-.025l.047-.001.085-.002.068.002.073.004.123.006c.143.005.286.006.427.007.051 0 .102-.002.153-.005l.057-.002c.08-.004.161-.005.242-.007l.066-.001c.13-.003.264-.005.396-.014.093-.007.187-.012.28-.017l.195-.011.03-.002.183-.01.087-.002c.049 0 .097-.002.146-.004l.03-.002c.136-.007.277-.014.416-.017.135-.003.27-.003.404-.004h.49c.073 0 .146-.004.22-.008l.04-.002c.042-.002.084-.005.126-.005zm-5.233 8.25h-.022c-.064.002-.128.006-.192.01-.105.005-.212.017-.315.03l-.02.001c-.064.01-.142.022-.22.041-.06.014-.123.034-.2.064-.04.018-.072.035-.101.053-.033.029-.066.064-.103.11l.003-.005-.01.016-.007.007-.006.008c-.09.121-.164.249-.225.357-.04.072-.085.141-.129.209-.032.049-.064.098-.094.149l-.108.184-.1.17c-.065.108-.138.214-.21.316-.088.127-.18.26-.255.398l-.115.217-.094.178-.073.131-.074.131-.063.11-.036.063c-.059.105-.12.214-.171.325l-.036.08c-.044.095-.087.19-.128.285-.064.166-.112.347-.14.54-.008.08-.01.155-.01.228 0 .07.008.142.015.21.011.07.025.122.043.172.012.022.025.043.04.064.014.017.03.033.046.048.034.023.07.044.105.061.082.032.176.054.297.071.084.01.17.018.264.023.047.002.095.002.142.002h.942c.222 0 .423 0 .623-.007l.166-.007c.088-.004.176-.009.263-.01.14-.002.276-.005.41-.013.09-.005.176-.005.25-.005h2.08l.29.003c.123.002.245.005.368.009.167.004.34.009.51.009h.888l.065.001c.267.001.543.002.814.015.127.006.253.01.38.014l.065.002c.163.006.3.01.44.01h1.51l.272-.001h.044c.265 0 .539-.002.807-.026.155-.024.314-.07.492-.143.045-.02.092-.04.134-.068.012-.01.023-.022.034-.034l.018-.032c.013-.039.024-.08.033-.128.003-.03.003-.062 0-.096-.01-.057-.03-.11-.048-.154-.032-.073-.067-.146-.103-.217-.038-.075-.074-.152-.11-.228-.016-.035-.034-.07-.052-.104l-.033-.062-.035-.07-.112-.216c-.044-.084-.088-.168-.13-.253l-.038-.078c-.052-.106-.106-.216-.167-.319-.071-.118-.15-.24-.241-.375l-.008-.011c-.037-.056-.075-.111-.11-.168l-.114-.187-.061-.1c-.051-.086-.103-.172-.156-.256l-.108-.17-.008-.01c-.036-.057-.073-.116-.101-.178-.03-.066-.055-.132-.075-.197l-.036-.017c-.043-.016-.087-.028-.134-.035-.043-.004-.085-.005-.128-.005l-.135.003c-.096.003-.191.01-.284.02l-.146.021c-.108.016-.216.031-.325.044l-.025.003c-.127.014-.258.03-.388.036-.162.008-.305.013-.435.014h-.245c-.249 0-.44-.003-.621-.013-.066-.004-.13-.01-.196-.016l-.066-.007c-.05-.004-.1-.01-.149-.016-.08-.01-.159-.021-.238-.034l-.125-.024-.082-.017-.037-.006c-.123-.024-.25-.047-.368-.093l-.03-.011c-.06-.024-.124-.048-.183-.079-.062-.032-.115-.071-.168-.114l.008.007.018.015-.066-.048-.07-.045c-.036-.02-.073-.038-.11-.056l-.033-.016c-.12-.059-.215-.102-.304-.14l-.015-.006c-.032-.014-.064-.027-.096-.038-.007.023-.013.046-.018.07l-.022.077c-.019.06-.043.12-.074.188-.052.112-.12.214-.195.296-.029.032-.06.063-.09.094l-.027.026c-.02.019-.038.039-.056.058l-.055.059c-.053.053-.098.09-.144.118-.055.033-.121.06-.201.083-.07.02-.143.03-.217.04-.043.005-.1.011-.158.011l-.054-.002c-.04-.003-.078-.007-.116-.012l-.029-.003c-.036-.005-.072-.009-.107-.017l-.023-.004c-.027-.006-.054-.011-.08-.02-.04-.015-.08-.03-.119-.047-.12-.053-.23-.136-.335-.253l-.007-.008c-.02-.022-.038-.043-.056-.066l-.022-.026c-.02-.025-.039-.05-.055-.076-.027-.044-.058-.096-.085-.152-.036-.078-.06-.144-.074-.21-.016-.073-.021-.132-.016-.189.004-.04.01-.077.019-.112.02-.081.062-.153.102-.223.022-.038.044-.077.063-.117l.007-.023v-.015c0-.003-.002-.006-.007-.016l-.009-.005c-.06-.02-.124-.03-.183-.04-.05-.006-.092-.008-.131-.008zm2.953 3.585c.036 0 .074.003.113.008.071.011.135.026.2.046.037.012.075.024.108.042.034.018.075.042.1.076.032.04.057.076.073.122.01.028.017.057.021.088.005.028.008.056.01.084.05.072.08.149.094.228.008.05.01.097.006.145-.002.034-.005.07-.015.103-.013.047-.03.082-.051.111-.026.035-.054.063-.09.089-.057.04-.125.064-.214.08-.05.008-.106.012-.163.012-.072 0-.149-.007-.236-.02-.03-.004-.06-.01-.088-.018-.052-.014-.1-.036-.139-.056-.024-.013-.047-.027-.07-.042l-.058-.04c-.033-.025-.061-.05-.087-.087-.056-.082-.086-.18-.083-.278.002-.079.013-.16.03-.233.024-.102.066-.19.127-.261.023-.028.05-.059.083-.084.031-.024.057-.043.088-.058.02-.01.043-.02.064-.028.053-.02.113-.03.177-.03zm-2.722.244c.061 0 .118.008.167.024.083.027.152.076.19.137.026.044.04.094.042.15.026.024.047.05.06.078l.005.011c.042.025.068.07.068.117 0 .03-.011.06-.03.084l-.003.016c-.002.02-.003.04-.01.059-.016.052-.038.092-.069.125-.025.027-.059.06-.1.079-.022.01-.044.019-.066.026-.06.023-.133.035-.221.037h-.025c-.065 0-.13-.007-.196-.024-.161-.04-.278-.156-.304-.303-.03-.168.025-.358.14-.483.072-.078.173-.122.3-.13zm4.086-2.22c.025 0 .05 0 .076.004.073.01.16.023.249.047.069.02.148.043.217.08.044.024.09.052.127.088.034.033.065.072.09.11.04.063.09.16.095.272.004.079-.013.15-.052.216l-.005.01c.015.02.026.042.034.064.013.037.02.08.023.127.003.064-.002.123-.015.179-.012.05-.026.09-.045.124-.024.043-.052.087-.088.122-.062.059-.12.1-.178.128-.08.04-.143.062-.205.073-.082.015-.15.022-.212.022-.043 0-.082-.003-.12-.01-.079-.013-.138-.029-.19-.05-.045-.018-.086-.042-.136-.076-.033-.023-.065-.048-.097-.074l-.013-.01c-.036-.029-.074-.06-.103-.094-.057-.065-.101-.142-.139-.242l-.04-.109c-.023-.068-.031-.143-.024-.229l.012-.113c.005-.043.013-.093.026-.14.012-.04.027-.08.048-.127.036-.079.087-.15.154-.215.059-.057.132-.12.228-.147.06-.017.129-.027.21-.03h.048zm-3.957-11.45.037.002.027.002c.022 0 .043.002.064.003.064.002.128.006.192.01.075.005.15.01.224.011.143.004.286.005.429.005h.069c.11 0 .224.001.335.007l.223.015h.015l.081.006.104.007.1.007.324.021.232.012.066.003.13.006c.133.008.273.013.429.014.08.001.162.005.244.009l.178.007c.189.005.386.006.57.006h1.195c.12 0 .22.007.313.041.042.015.104.038.156.072.006 0 .013.001.02.004.056.013.105.043.146.09.035.042.066.089.1.153.037.064.057.138.064.227.005.081-.004.16-.026.229-.024.075-.062.145-.117.213-.023.027-.044.047-.067.065-.03.022-.065.034-.09.043-.036.013-.072.022-.122.029-.144.019-.295.02-.429.022h-.04l-.082.001h-.043l-.043-.001-.115-.005-.116-.004-.21-.011-.035-.002-.029-.002-.147-.007c-.14-.005-.283-.006-.428-.006-.078 0-.156.004-.235.008l-.179.007c-.225.004-.45.004-.663.004h-.232l-.06.001h-.114c-.062 0-.124 0-.186-.003l-.186-.014c-.077-.006-.155-.012-.232-.015-.169-.007-.304-.015-.425-.027l-.1-.01c-.099-.01-.2-.02-.301-.024-.077-.004-.153-.005-.229-.005l-.171-.002-.176-.008c-.073-.004-.146-.008-.22-.009-.144-.002-.29-.002-.434-.003h-.199c-.084 0-.152-.01-.208-.032-.05-.019-.09-.042-.132-.074-.049-.039-.083-.104-.095-.178l-.002-.015c-.01-.066-.02-.135-.026-.203-.014-.163-.02-.334.067-.473.025-.04.067-.095.129-.132.063-.04.134-.051.2-.06l.134-.014.063-.007c.074-.008.149-.012.201-.014l.012-.001.035-.001zm2.554-1.28c.116 0 .211.028.282.084.024.018.045.042.064.07l.024.012c.098.05.165.14.183.245.008.044.01.088.006.143-.003.047-.007.097-.017.143-.012.059-.034.11-.068.16-.024.035-.047.06-.072.08-.03.024-.058.04-.095.058-.069.027-.12.04-.174.044h-.035c-.05 0-.1-.006-.14-.013-.038-.006-.075-.017-.111-.027l-.021-.007c-.055-.016-.108-.038-.156-.066-.06-.035-.11-.08-.144-.13-.015-.022-.029-.046-.043-.076-.032-.068-.051-.148-.06-.243-.005-.07.01-.143.04-.199.027-.05.065-.091.124-.134.05-.036.105-.066.177-.095.075-.03.147-.047.218-.048zm1.461-1.951.034.001c.072.005.147.012.214.037.04.014.081.03.118.053.03.019.06.041.089.067.042.036.098.096.122.171.009.027.014.057.016.09.04.033.073.07.102.112.036.052.06.12.067.194.006.053 0 .111-.017.184-.015.062-.037.123-.065.177-.034.067-.07.117-.112.154-.045.04-.095.077-.153.111-.055.034-.112.06-.164.073-.083.022-.17.033-.258.033-.065 0-.133-.006-.201-.018-.046-.008-.081-.016-.114-.025-.037-.01-.073-.027-.113-.046-.028-.013-.058-.03-.094-.052s-.081-.052-.113-.087c-.044-.047-.08-.101-.107-.16-.027-.06-.055-.124-.067-.197-.014-.08-.013-.16.002-.248.014-.077.037-.176.097-.257.09-.123.197-.216.318-.278.067-.034.136-.059.204-.074.048-.01.101-.016.161-.016.023 0 .045 0 .068.002zm-2.928-1.217c.037 0 .074.002.11.005.083.008.157.015.23.033.077.018.149.044.213.077.056.029.114.067.182.122.04.032.088.071.131.113.024.023.046.048.069.072l.044.046c.044.046.084.093.118.14.019.026.034.05.045.073l.007.016.052.068c.043.059.075.117.097.176.047.126.057.275.027.419-.013.06-.03.129-.06.193-.022.046-.05.09-.077.133l-.01.017c-.023.035-.05.068-.075.1l-.008.01-.061.075c-.042.048-.079.085-.115.116l-.015.013c-.05.042-.1.086-.156.122-.05.032-.097.059-.145.08-.054.025-.118.053-.182.07-.065.017-.138.027-.217.03h-.085c-.048 0-.09-.001-.129-.005l-.03-.002c-.067-.007-.137-.013-.202-.034-.165-.052-.307-.13-.41-.227l-.102-.1-.017-.016-.032-.032c-.032-.03-.065-.063-.093-.098l-.013-.016c-.024-.029-.048-.059-.066-.092-.02-.036-.039-.075-.054-.115-.022-.054-.038-.116-.049-.187-.02-.127-.02-.265 0-.436.006-.05.013-.099.022-.148s.028-.094.047-.138l.006-.014c.028-.065.077-.121.128-.177.109-.12.212-.217.316-.296.05-.037.106-.07.166-.096l.026-.012c.036-.015.072-.031.11-.044.047-.016.1-.025.169-.03.03-.003.059-.004.088-.004z" fill="#fff" mask="url(#f)"/></g><g transform="translate(9.693)"><use fill="#fa0058" xlink:href="#b"/><path d="m22.516 18.726c.044 0 .078.002.11.007.15.022.292.066.435.139-.023.011-.047.021-.07.03.044.033.086.073.125.117.083.093.16.195.234.293l.104.136.033.042c.1.128.204.26.294.4l.074.117.066.104.034.052c.035.054.07.108.104.164.045.075.088.154.129.23.044.082.089.167.138.247l.02.03c.085.125.172.255.243.391.024.047.05.092.075.138l.046.082.03.05.033.06c.019.036.036.073.052.109.038.086.083.17.129.254l.059.115.017.037.03.066c.021.055.036.1.048.143.017.062.024.133.02.204-.003.048-.008.111-.023.173-.018.072-.047.134-.077.19-.021.04-.045.08-.069.12-.021.034-.041.066-.066.097-.066.079-.14.14-.224.187-.085.047-.183.066-.279.085l-.068.012-.084.016c-.047.009-.093.018-.14.025-.337.049-.705.086-1.127.11h.037c-.128.008-.256.013-.384.018-.075.003-.151.003-.227.004l-.113.001-.255.003h-.165c-.079 0-.157 0-.236.003-.106.004-.212.008-.319.01l-.12.003h-.06c-.027 0-.053 0-.08-.002h-.035c-.05-.002-.1-.003-.151-.003-.142 0-.286.005-.426.01-.17.005-.344.006-.512.006h-.107l-.276-.003-.095-.001-.21-.005c-.17-.008-.344-.02-.511-.032l-.139-.01-.63-.042c-.467-.03-.858-.047-1.229-.053-.104-.001-.208-.003-.313-.007-.064-.002-.129-.005-.193-.009l-.107-.005-.035-.002c-.182-.008-.37-.017-.554-.017h-.02l-.25.002-.336.003h-.105c-.08 0-.16 0-.24-.002l-.198-.006-.12-.003c-.105-.003-.21-.004-.315-.004l-.257.001h-.027l-.289.001h-.32l-.269.001c-.112 0-.225 0-.338.004l-.17.005c-.14.003-.28.007-.42.014l-.284.018-.147.008-.52.042-.308.025c-.183.015-.365.033-.548.05l-.335.031-.284.027c-.106.01-.211.021-.317.03l-.1.01c-.165.015-.336.03-.505.038-.164.007-.326.01-.481.01h-.133l-.321-.003c-.082 0-.153.003-.224.006l-.06.003-.208.006-.103.002-.104.004c-.066.003-.132.005-.198.005h-.038c-.083 0-.164 0-.248-.013-.054-.008-.11-.016-.164-.033-.03-.01-.058-.02-.09-.034-.024-.012-.054-.025-.075-.043-.041-.033-.08-.067-.1-.112l-.033-.081c-.013-.037-.029-.072-.044-.108l-.007-.013c-.02-.045-.037-.094-.054-.152l-.019-.059c-.02-.061-.04-.125-.047-.19-.012-.114-.012-.216 0-.313.012-.103.026-.198.044-.289.021-.11.049-.21.085-.308l.017-.048.03-.082.054-.126c.04-.098.085-.197.136-.294.04-.08.085-.164.138-.241.11-.162.219-.303.332-.433.116-.13.246-.27.396-.425.066-.069.134-.135.202-.202l.014-.014c.028-.026.055-.054.081-.082.037-.039.074-.078.114-.113.097-.088.204-.169.308-.246l.139-.106.1-.08c.04-.034.08-.067.122-.098.065-.05.15-.114.24-.173.1-.066.178-.113.254-.152.09-.046.19-.08.282-.109.143-.045.302-.067.473-.067.041 0 .083.001.124.004l.392.024.196.01c.222.01.406.015.577.015h.214l.091.001.175.007.11.004c.13.004.264.006.398.006.08 0 .161 0 .242-.002.107-.002.215-.002.322-.002h.143l.143-.001h.169l.117.001h.156l.156-.004.116-.005.168-.006c.104-.002.209-.003.313-.006h.185l.112-.001c.096-.001.193-.005.29-.01.173-.009.363-.013.6-.014.104 0 .208-.002.312-.005.095-.002.189-.004.283-.004l.28-.003h.318l.228-.002.275-.002h.126c.09 0 .18-.001.269-.003l.294-.003h.198c.14 0 .279 0 .418.004.1.002.199.005.298.005h.228l.07.001.085.003c.159.005.323.01.485.01h.189c.154 0 .308.001.461.003h.185l.115-.002.15-.006.128-.005c.187-.004.37-.014.57-.024l.129-.01c.075-.006.15-.011.226-.014h-.037l.138-.01c.077-.005.154-.01.231-.013h-.037l.202-.018.185-.017c.134-.01.27-.02.404-.026l.201-.006.035-.001h.051zm-7.67-11.186c.082.001.172.004.279.008.18.008.339.012.486.012l.086.001.122.002h.05l.276-.005h.127c.117 0 .243.002.399.007.315.01.635.031.944.052l.071.005c.678.045 1.355.093 2.033.142l.02.001.063.004c.057.004.115.007.172.013.09.009.178.021.267.033.077.01.154.02.23.028.09.01.178.021.266.034l.075.01c.14.02.286.04.428.067.091.017.181.034.272.054l.119.027.086.02.13.025c.086.015.17.03.255.048.118.026.24.064.359.113l.015.006c.061.026.124.052.184.082l.088.048c.058.033.11.081.143.138.03.048.05.104.062.176l.006.041.006.042c.007.037.015.073.024.11l.004-.013.009-.013c.086.153.137.298.15.431.014.122.008.248.003.369l-.003.088c-.003.088-.002.176-.002.264v.131c0 .14.005.279.012.418.006.078.014.162.027.258l.017.12.019.13c.011.095.019.191.026.284.005.068.01.135.017.203.033.319.063.653.091 1.022.013.168.029.335.046.503.01.1.022.202.034.303l.024.2.014.152.008.096c.008.087.015.174.02.261.012.168.021.336.028.504l.018.243.006.059c.007.076.014.153.018.23l.012.263.012.265.006.095c.002.01.003.023.002.036l.002.024v.012l.002.028.002.015c.001.01.002.02 0 .029l.007.126c.003.095.005.19.005.285 0 .102.003.204.006.306l.004.184v.036c.002.064.003.13-.001.193-.006.086-.017.166-.031.245-.01.048-.02.094-.033.144-.008.036-.016.072-.028.108-.029.084-.077.207-.168.294-.105.1-.241.162-.373.222l-.045.02c-.157.074-.315.127-.47.16l-.094.02c-.127.026-.258.054-.388.077-.324.056-.66.102-1 .136-.192.02-.368.032-.538.038l-.13.004c-.132.005-.265.01-.397.013l-.137.003c-.127.003-.254.006-.38.006h-.13c-.128 0-.256 0-.385.002l-.13.001c-.324 0-.642-.016-.882-.03l-.195-.013c-.104-.007-.21-.014-.314-.018-.098-.004-.196-.005-.293-.007l-.215-.005-.247-.01-.27-.009c-.088-.003-.175-.003-.262-.004h-.13l-.132-.004c-.315-.01-.654-.026-1.067-.052l-.288-.019-.191-.013c-.168-.01-.333-.015-.517-.019-.303-.007-.627-.022-1.05-.047l-.123-.008c-.13-.008-.26-.016-.39-.022-.093-.004-.186-.005-.28-.005l-.207-.004c-.129-.003-.257-.006-.386-.006-.217 0-.43.006-.632.018-.115.008-.23.017-.344.027l-.072.006-.128.012-.092.01-.182.013-.04.002-.258.018c-.048.003-.097.005-.145.006l-.093.003-.124.006-.127.006c-.08.004-.16.006-.24.006-.084 0-.164-.003-.24-.007-.073-.005-.146-.015-.218-.025l-.011-.001c-.048-.007-.095-.015-.143-.024v-.001l-.015-.002-.024-.005-.026-.005v-.001l-.01-.001-.01-.003-.009-.002-.01-.002-.05-.012c-.086-.025-.154-.07-.196-.129-.023-.032-.047-.065-.06-.102-.013-.034-.025-.07-.036-.104-.02-.064-.035-.132-.049-.198l-.008-.038-.051-.239-.006-.03c-.014-.068-.029-.138-.04-.208-.024-.178-.039-.36-.05-.514l-.01-.169-.003-.092c-.005-.09-.01-.18-.013-.27l-.002-.126-.002-.108-.003-.098-.004-.138-.002-.323v-.215c-.004-.302-.015-.621-.033-.948l-.004-.05c-.011-.148-.023-.302-.023-.454-.001-.152.002-.316.008-.501.012-.322.034-.648.055-.962l.012-.178c.018-.277.036-.564.062-.846.005-.053.012-.106.019-.16l.01-.074.032-.274.026-.25.001-.013c.008-.074.015-.15.018-.226.008-.203.012-.37.013-.522.001-.146.001-.32-.009-.491l-.002-.035c-.009-.15-.018-.306-.007-.459.013-.167.06-.33.108-.484.024-.075.049-.152.115-.2.04-.03.073-.048.11-.063.023-.009.048-.018.073-.025l.016-.004c.07-.02.141-.041.213-.059l.064-.016c.057-.014.115-.028.173-.04.074-.016.148-.03.223-.043.163-.028.332-.044.49-.057.11-.01.22-.015.33-.02l.196-.01-.037.001.291-.016c.103-.007.206-.014.309-.017h-.013l.018-.002.062-.005c.09-.006.182-.013.273-.017l.144-.003h.208c.112-.003.224-.004.337-.004.09 0 .18-.003.27-.005l.098-.003h.248c.05 0 .097-.002.146-.003l.097-.002c.153-.002.306-.008.459-.014l.04-.001c.157-.007.315-.016.472-.026l.024-.002h.01v.002l.015-.002.02-.002h.018l.03-.003h.014l.012-.001.033-.002.034-.001.113-.005.191-.006c.108-.005.216-.009.323-.01l.325-.006.189-.005zm-4.307 1.893-.025.017c-.045.032-.093.067-.136.105-.035.03-.07.064-.11.107-.057.07-.106.143-.147.216-.035.078-.063.163-.087.26-.042.224-.068.446-.076.66-.005.145-.004.29-.003.426.001.114 0 .228-.002.343l-.001.086c-.002.165-.002.313.001.452l.003.153c0 .09.001.182.006.273.015.22.023.445.03.663.005.169.01.338.02.507l.004.057.008.12.004.081.002.054c.004.055.01.11.017.166.005.037.008.074.011.11l.007.071c.004.05.01.098.016.147.009.07.017.141.023.212.011.157.019.284.023.402l.004.19c0 .06 0 .12.003.181.007.1.018.208.047.313l.022.046.021.024c.019.015.038.028.058.04.04.017.083.031.14.044.073.012.138.023.205.028l.206.015.389.027c.443.03.902.062 1.352.105.208.02.419.048.622.075l.261.034c.09.012.181.02.272.03.057.005.113.01.17.017l.18.021c.08.01.16.02.24.028.233.023.47.038.7.052l.213.014c.262.017.571.036.877.048.125.005.249.007.373.01.171.003.348.007.522.017l.042.002c.275.015.56.03.84.033h.057c.128 0 .254-.003.393-.008l.172-.005c.094-.002.188-.004.282-.009.081-.004.163-.006.244-.008l.183-.006.148-.006.29-.01.098-.007h.017l.028-.003.03-.002.024-.002c.013-.002.027-.003.04-.003l.018-.001.012-.002h.021v.001l.016-.002.018-.001.162-.015c.112-.011.233-.026.355-.048.092-.017.183-.033.275-.052.072-.016.144-.039.213-.06.128-.046.221-.089.303-.139.036-.026.064-.05.088-.073.026-.032.049-.067.072-.11.03-.063.053-.132.073-.215.011-.056.02-.103.025-.15.007-.065.012-.13.015-.194.005-.088.004-.177.003-.264-.001-.058-.002-.115-.001-.172 0-.065.003-.129.004-.193l.006-.231c0-.136-.004-.282-.012-.46l-.007-.213-.007-.213-.027-.37c-.011-.123-.025-.247-.04-.37-.018-.162-.037-.33-.048-.494-.01-.149-.01-.294-.008-.467.002-.139.001-.284-.004-.44-.006-.102-.02-.205-.032-.304l-.016-.132c-.009-.071-.016-.143-.024-.214l-.024-.214c-.01-.075-.02-.15-.033-.224l-.03-.207-.009-.075c-.013-.111-.027-.227-.058-.337l-.012-.033-.03-.084-.032-.076-.021-.05c-.04-.1-.073-.183-.095-.274.014.005.028.011.04.02l-.03-.02c-.032-.015-.07-.032-.109-.044-.044-.013-.089-.025-.134-.035-.08-.014-.163-.027-.256-.038-.297-.037-.601-.052-.887-.064-.15-.006-.3-.01-.451-.013-.15-.004-.3-.007-.451-.014-.1-.004-.201-.012-.302-.02l-.144-.01-.43-.03-.241-.017c-.217-.016-.435-.03-.652-.044-.273-.018-.592-.038-.904-.049-.095-.003-.19-.005-.286-.006l-.142-.002c-.145-.003-.285-.01-.44-.02-.29-.017-.598-.033-.903-.036h-.179l-.068.002-.141.005-.07.002-.162.005c-.087.002-.173.004-.26.009-.175.014-.35.028-.525.039-.142.01-.285.018-.428.025l-.195.01-.184.008-.174.018-.027.004c-.067.008-.134.015-.2.026-.122.021-.265.048-.4.09-.13.048-.249.097-.362.15-.123.058-.24.13-.342.19l.03-.017z" fill="#fff" mask="url(#g)"/></g><g transform="translate(39.489)"><use fill="#ffb600" xlink:href="#c"/><path d="m23.31 13.578c.046.003.092.022.136.04l.039.017c.044.017.088.031.134.046l.071.023c.098.03.196.062.294.09.057.017.115.033.173.048.064.017.128.034.191.053.113.034.226.073.335.112l.02.007.025.008c.048.018.096.035.144.05l.09.027.087.026.032.01c.025.007.05.014.08.026.015.006.032.013.048.023.017.01.036.022.05.037.033.036.054.071.067.115.01.029.007.063.004.081-.002.017-.003.03-.007.046l-.008.031-.003.01c-.007.026-.016.052-.026.078l-.033.083-.033.084-.059.172c-.041.13-.078.237-.122.344-.025.062-.05.119-.076.171-.01.022-.022.043-.033.064-.015.028-.029.055-.042.083l-.014.04.028.029c.018.019.035.038.05.057.035.041.067.084.093.121.028.04.057.078.086.117l.09.123.089.126c.07.1.142.202.216.3l.013.016.022.029.007.01c.041.05.084.104.122.16l.047.072.027.043.056-.047c.062-.052.126-.106.194-.152.026-.018.052-.034.08-.05l.024-.016.024-.016c.043-.027.084-.055.125-.085l.008-.007c.055-.044.113-.089.172-.128.038-.025.069-.045.105-.06.027-.013.06-.025.095-.025l.043.004.037.01c.043.015.083.041.117.077.044.045.086.1.129.172.028.047.056.1.09.167l.038.08.043.09.09.18.015.029c.022.044.044.087.07.13l.03.052c.024.039.047.077.068.117.066.117.123.238.17.36.025.062.04.116.048.169.012.066.014.162-.036.242-.018.03-.039.058-.062.084-.034.037-.075.076-.128.118-.05.04-.105.083-.163.122l-.19.134-.117.085-.114.078c-.06.04-.122.083-.18.127l-.043.032-.178.15c-.052.047-.097.093-.14.146l-.012.017c-.003.016 0 .026.003.036.006.034.012.069.015.104.006.056.01.11.012.167v.017c.003.05.005.099.005.148 0 .051-.003.102-.005.153l-.001.018c-.004.064-.01.127-.015.191l-.011.137-.008.15c-.001.04 0 .082.005.132l.028.003c.075.009.152.017.228.034.077.017.161.036.242.06.058.016.114.038.169.06l.056.021c.052.02.101.039.148.064s.09.057.124.086c.047.037.086.072.12.105.065.065.105.14.117.217.024.158-.044.314-.11.447-.036.074-.074.147-.113.221l-.06.118c-.054.106-.105.212-.155.325-.035.083-.07.165-.115.242-.05.09-.107.183-.173.284l-.012.018c-.015.024-.031.049-.05.07-.038.044-.09.068-.148.068-.017 0-.035-.002-.052-.006-.041-.01-.082-.026-.122-.042l-.042-.016-.11-.04-.05-.016c-.054-.02-.107-.04-.16-.062-.052-.021-.106-.042-.162-.059-.06-.018-.12-.031-.182-.04-.027-.003-.055-.006-.082-.006h-.01l-.015.008-.062.058c-.02.02-.04.04-.062.057-.055.048-.114.09-.163.126l-.126.087c-.06.04-.118.08-.175.122-.049.039-.107.083-.165.123-.037.026-.075.049-.113.072l-.054.033-.097.06-.072.047-.083.052-.01.006c.014.025.03.05.045.074l.03.048c.02.033.036.066.054.1l.036.064.026.046c.023.041.048.083.067.127l.049.12.027.066.006.014.09.2.014.034c.02.043.041.083.063.125l.016.029.021.039.014.027.008.017c.01.017.019.034.022.057.003.027.007.052 0 .081-.007.022-.023.05-.038.065-.026.025-.054.043-.088.059l-.051.022-.03.013-.117.05c-.463.005-.926.005-1.388.026l-.415.019-.037-.08-.01-.023c-.026-.054-.051-.11-.072-.165l-.016-.043c-.015-.039-.03-.079-.042-.12-.012-.044-.02-.09-.027-.134l-.007-.039c-.008-.049-.02-.097-.036-.146l-.024.003-.03.004-.087.006c-.06.004-.121.005-.181.006h-.065c-.106 0-.201-.004-.292-.015-.139-.016-.258-.037-.365-.064-.058-.015-.115-.03-.173-.047l-.028-.008-.077-.022-.002.013-.002.012-.016.107c-.011.074-.03.152-.054.24-.038.131-.087.267-.15.413-.023.059-.05.126-.07.195l-.788.042-.071-.03.012.006c-.058-.023-.115-.045-.173-.066-.058-.02-.116-.035-.18-.052-.126-.032-.237-.067-.34-.105-.048-.018-.098-.035-.147-.05-.061-.021-.122-.041-.182-.065l-.112-.041c-.083-.03-.169-.06-.247-.101l-.039-.023c-.038-.026-.063-.05-.084-.081-.02-.03-.027-.077-.017-.125.005-.027.017-.053.028-.077.024-.054.048-.1.072-.144.057-.1.112-.201.163-.303.04-.078.081-.154.123-.231l.038-.07.082-.15c.01-.019.022-.037.033-.055l.026-.041-.025-.024-.022-.02c-.03-.03-.061-.058-.089-.09-.043-.05-.08-.092-.123-.13-.05-.046-.105-.088-.157-.13-.041-.032-.082-.065-.122-.1-.105-.09-.19-.18-.258-.276-.034-.047-.064-.097-.093-.153l-.018-.036-.027-.039-.073.041-.01.005c-.046.026-.095.052-.145.074l-.15.07-.05.025c-.043.022-.088.044-.133.062-.07.027-.125.044-.179.055-.026.006-.06.012-.095.012-.044 0-.079-.01-.107-.03-.043-.028-.071-.056-.094-.09l-.032-.053c-.02-.035-.035-.073-.051-.11l-.022-.048c-.026-.06-.053-.12-.082-.178-.017-.034-.036-.068-.055-.102-.01-.02-.022-.038-.033-.058l-.096-.18c-.071-.139-.125-.252-.168-.356-.023-.057-.047-.119-.06-.181-.012-.05-.024-.102-.034-.153l-.008-.036c-.015-.067-.03-.127-.05-.182-.015-.05-.034-.098-.056-.15-.018-.041-.036-.082-.057-.121-.016-.03-.027-.056-.035-.081-.01-.034-.008-.09.014-.122l.027-.036.025-.019.026-.019.026-.013c.091-.043.19-.073.276-.096l.087-.021.062-.015c.05-.013.098-.028.146-.043l.081-.023c.06-.017.123-.035.182-.058l.028-.015.01-.042c.011-.114.024-.247.03-.38.003-.056.004-.113.006-.169.002-.072.003-.143.008-.215l.006-.105c.004-.089.01-.18.02-.27.008-.069.02-.139.035-.207l.014-.064.015-.066c-.036-.012-.072-.022-.105-.03-.045-.009-.09-.016-.136-.023l-.017-.002c-.048-.007-.099-.015-.147-.029-.044-.012-.087-.031-.129-.05l-.02-.009-.019-.008c-.034-.014-.067-.027-.104-.047-.033-.017-.067-.035-.093-.065-.025-.028-.043-.062-.05-.093-.007-.028-.013-.061-.012-.091.003-.048.009-.095.019-.139l.014-.054.008-.031.02-.081.013-.048.012-.048c.013-.05.031-.115.057-.178l.02-.05.043-.11.051-.144c.023-.069.048-.14.076-.208.04-.1.09-.2.137-.295l.031-.064.03-.062c.04-.085.08-.173.14-.249.032-.042.062-.076.102-.104.046-.032.1-.05.154-.05l.03.002c.078.01.138.02.195.036.107.03.219.064.332.102l.016.005c.053.017.108.035.156.066l.021.014c.047-.05.102-.12.167-.182l.03-.028c.07-.067.142-.136.223-.19l.038-.025c.072-.048.146-.098.225-.137l.052-.026c.056-.027.115-.056.168-.093.016-.014.032-.031.046-.048l-.003-.035c-.013-.073-.027-.146-.044-.218l-.005-.024c-.01-.044-.019-.086-.023-.13l-.005-.052c-.001-.017-.002-.034-.005-.055-.011-.083-.023-.167-.038-.25-.018-.11-.033-.217-.043-.3-.008-.054-.018-.109-.028-.163l-.005-.023-.014-.09c-.01-.069-.016-.136.022-.196.025-.04.057-.07.096-.092.012-.008.024-.014.037-.02.038-.018.07-.032.099-.042.058-.02.117-.035.182-.05.06-.015.12-.026.18-.037.06-.012.12-.023.18-.037l.306-.076.068-.018.045-.011c.107-.027.217-.054.327-.076.044-.009.088-.016.133-.023l.049-.008c.065-.011.135-.022.206-.028l.042-.003c.047-.004.096-.008.144-.009.058 0 .118.004.175.026.046.019.081.042.108.071.018.02.032.041.047.066.04.064.06.142.075.21.016.072.03.143.04.216l.016.167.022.206c.007.05.016.1.025.15l.007.041.008.042.006.042h.117c.056-.025.113-.046.17-.061.092-.026.185-.034.263-.04.14-.008.308-.02.478-.037.004 0 .01-.002.02-.008.02-.031.037-.065.053-.097l.053-.106.032-.07c.023-.062.042-.126.06-.188l.026-.085.026-.08c.018-.057.036-.114.052-.172l.014-.048.025-.092.005-.021c.004-.017.008-.035.014-.051.009-.021.017-.041.027-.061l.028-.034c.022-.025.06-.04.105-.04zm-10.786-6.512c.035 0 .07 0 .104.002.032.002.062.004.093.008.04.006.08.02.12.044.089.053.127.158.147.232.035.122.045.254.032.391-.01.093-.019.179-.031.265l-.031.214c-.01.062-.023.123-.035.184l-.006.027-.023.131-.017.092-.013.073c-.009.043-.017.086-.023.129-.004.029-.007.064-.003.108l.026.014c.04.016.082.029.124.042.131.041.28.088.415.16.048.025.094.056.138.086l.042.028c.06.04.122.081.184.12l.09.057.049.033.028.022.02.016.009.007c.049.039.094.082.14.126.037.034.077.068.124.106l.072.055.046.035.073.055c.025.02.049.04.073.062l.013.011.023.015.008.002.015-.005c.03-.016.063-.036.1-.063l.046-.038c.034-.028.068-.056.103-.082.027-.02.054-.04.081-.058l.077-.054c.006-.007.014-.013.026-.02.056-.045.108-.095.158-.144l.018-.017c.057-.056.114-.112.17-.17.053-.057.114-.114.19-.18.028-.024.056-.05.084-.077.03-.029.062-.057.094-.085l.02-.017c.025-.022.05-.044.078-.064.034-.024.074-.05.116-.06.019-.005.04-.01.063-.01.006 0 .012 0 .018.002.031.003.05.009.078.021.02.01.039.021.061.038.032.023.058.048.082.075.04.044.08.089.122.132l.043.044.075.079.093.102.056.06c.033.037.065.074.096.112l.045.055c.094.111.183.228.272.344l.04.049c.018.02.034.04.05.06l.048.06c.016.022.026.035.033.05.009.02.018.04.024.06.004.016.008.049.006.066-.005.049-.014.09-.035.131-.034.065-.075.121-.107.164-.047.062-.094.123-.146.179l-.06.065-.073.078-.104.12c-.058.067-.117.136-.182.2l-.059.057c-.068.066-.139.133-.2.207-.06.08-.107.153-.143.223l.055.052c.022.021.041.044.06.067.1.124.174.267.226.377l.058.12c.049.1.1.201.138.306.029.077.053.15.072.222l.022.077.036.13c.021.075.038.15.055.227.011.051.027.119.052.184l.005.01.017.011c.045.016.093.026.14.036l.045.01.174.042c.05.013.1.029.148.045l.026.008c.058.02.119.037.187.054l.141.032c.077.017.155.035.232.058.142.041.263.088.369.143l.044.024.007.004.01.006.033.022.022.02c.026.03.059.073.07.123.01.044.014.085.012.124-.002.075-.019.15-.035.224l-.005.024-.02.105-.02.094c-.013.063-.027.127-.043.19-.028.109-.066.251-.115.39-.051.149-.1.28-.154.4l.01-.017-.032.076c-.016.037-.034.064-.053.08-.027.022-.067.051-.116.051l-.015-.001-.05-.006c-.026-.003-.053-.004-.079-.004-.059 0-.117.006-.17.012l-.192.03-.063.013-.135.024c-.076.012-.15.02-.223.026l-.068.004c-.035.002-.07.004-.112.009l-.045.007-.015.002-.004.02-.003.02c-.006.024-.013.046-.021.069l-.033.086-.027.073c-.032.085-.069.171-.104.254l-.015.036-.002.005-.002.003-.005.012c-.061.145-.118.26-.177.36-.056.095-.117.195-.193.314-.064.101-.132.2-.199.299-.034.05-.07.1-.106.15-.028.038-.058.074-.087.11l-.04.05-.018.02-.004.013c.031.039.066.078.107.12l.034.035c.033.034.067.07.104.101l.055.039c.053.037.109.075.155.122.025.026.05.053.073.08.024.027.048.055.074.08.029.03.06.057.09.085.024.022.048.043.071.066l.05.048.047.048.05.045.029.02.054.04.048.037.024.019c.014.01.029.022.041.035.013.012.025.026.035.04.017.025.022.05.025.078.004.037-.01.075-.045.116-.021.026-.047.05-.077.075-.049.04-.093.085-.136.13l-.017.018-.125.13c-.054.056-.104.116-.153.175l-.112.13-.038.043-.096.107-.048.056c-.03.037-.063.075-.097.109-.04.04-.086.08-.145.126-.03.024-.063.05-.104.063-.017.005-.034.007-.051.007-.026 0-.052-.006-.079-.018-.03-.014-.057-.035-.082-.056l-.012-.01c-.063-.045-.13-.083-.205-.125s-.15-.084-.227-.125c-.079-.041-.157-.087-.23-.137-.05-.032-.095-.07-.14-.105l-.05-.04c-.115-.086-.238-.158-.367-.216l-.036-.01-.03.028-.015.014-.008.007c-.044.04-.088.08-.137.115-.057.041-.116.078-.17.111-.133.08-.26.146-.389.203-.125.056-.255.108-.388.155-.068.023-.138.043-.206.062-.034.01-.058.016-.082.021l-.097.025-.002.055c-.002.126-.002.252-.002.378v.142l-.001.153c-.003.065-.008.136-.018.228l-.01.091c-.011.123-.024.25-.053.372-.008.036-.017.07-.029.106-.018.054-.034.101-.065.14-.03.035-.071.053-.122.053-.024 0-.05-.004-.075-.012l-.023-.008c-.02-.007-.043-.015-.065-.019l-.029-.006c-.147-.019-.262-.031-.37-.039-.111-.008-.23-.016-.345-.031l-.032-.004c-.046-.006-.092-.013-.138-.016-.058-.004-.116-.01-.173-.015l-.15-.013c-.07-.005-.14-.011-.21-.02l-.092-.011-.023-.003c-.02-.002-.04-.003-.057-.008-.085-.025-.115-.114-.114-.19l.002-.065.001-.026c.006-.142.01-.289.01-.438l.001-.37v-.3l.001-.028c0-.046.002-.094-.003-.14l-.01-.06c-.006-.01-.012-.01-.018-.012l-.018-.004-.03-.007c-.026-.007-.05-.017-.077-.029l-.101-.043v-.001h-.002l-.023-.01-.022-.009-.036-.014c-.045-.018-.09-.036-.133-.056-.062-.026-.12-.06-.173-.092-.048-.028-.095-.06-.141-.09l-.033-.023-.177-.12c-.102-.07-.222-.153-.337-.245-.055-.043-.108-.086-.16-.132l-.009-.007-.007-.007-.008.017c-.029.054-.066.103-.1.149-.041.053-.086.108-.146.178-.045.052-.094.107-.146.156-.106.104-.214.201-.319.291-.127.109-.235.192-.339.261l-.03.021c-.044.03-.09.06-.136.085-.045.024-.1.054-.159.055-.058 0-.114-.027-.167-.08l-.2-.2-.117-.115c-.048-.049-.098-.099-.141-.153-.056-.07-.098-.132-.134-.194l-.042-.073c-.052-.09-.106-.184-.17-.27-.054-.069-.116-.14-.187-.217-.02-.021-.04-.043-.058-.065l-.018-.022c-.014-.017-.03-.035-.04-.054-.017-.028-.029-.055-.037-.08l-.006-.024-.004-.015-.004-.009c-.018-.041-.022-.077-.012-.11.01-.031.025-.057.053-.088l.024-.026c.042-.044.083-.088.127-.131.09-.09.169-.17.239-.245.069-.074.137-.15.201-.23.064-.077.127-.14.193-.191.01-.01.015-.015.017-.024l-.015-.034c-.03-.069-.052-.127-.066-.183-.017-.067-.033-.133-.054-.199-.042-.132-.086-.267-.132-.4-.026-.078-.056-.153-.086-.23l-.052-.135c-.041-.11-.07-.233-.092-.388-.006-.036-.012-.071-.02-.106-.006-.026-.015-.05-.026-.078-.005-.01-.01-.02-.017-.03l-.031-.01-.02-.005c-.011-.003-.023-.008-.034-.013l-.033-.012-.012-.004c-.04-.013-.077-.026-.116-.033l-.023-.002-.07-.009-.018-.003-.047-.009h.002l-.08-.012-.072-.012c-.03-.004-.058-.006-.088-.008l-.05-.001-.068-.003c-.046-.004-.09-.009-.133-.018l-.1-.026-.097-.031c-.029-.01-.057-.02-.086-.028l-.048-.014c-.042-.013-.085-.026-.13-.033l-.088-.015c-.024-.005-.05-.01-.071-.023-.029-.017-.049-.037-.064-.064-.028-.047-.024-.105-.02-.157v-.017l.006-.087c.005-.133.008-.273.01-.428l.001-.519v-.333c.001-.082.004-.154.008-.22.004-.052.01-.107.03-.159.014-.037.042-.087.092-.117.029-.018.061-.032.097-.042.019-.005.039-.008.059-.012l.04-.007.044-.01.043-.01c.067-.015.138-.026.21-.031.113-.01.228-.01.34-.01h.08c.024 0 .05 0 .074.004l.031.004c.025.003.05.007.076.009l.041.003c.021 0 .042.002.063.004l.063.01.039.006.065.006.016-.07.006-.03c.01-.048.022-.095.037-.14l.118-.371c.022-.071.046-.141.07-.211.022-.062.043-.123.063-.185.023-.073.05-.146.084-.224.022-.05.048-.098.074-.146l.022-.04c.028-.053.06-.105.092-.157l.09-.15-.03-.03c-.03-.034-.055-.068-.076-.1-.013-.018-.025-.037-.036-.055-.021-.032-.042-.065-.065-.096-.07-.096-.144-.202-.232-.331-.075-.112-.155-.233-.22-.362l-.02-.04c-.048-.094-.098-.191-.162-.277l-.011-.015c-.032-.04-.065-.082-.093-.125-.03-.044-.053-.08-.074-.117l-.013-.023-.025-.045-.005-.008c-.012-.017-.024-.036-.03-.057-.011-.045-.007-.085.013-.124.021-.04.058-.074.094-.103.024-.02.049-.04.074-.057l-.01.007.018-.015c.056-.043.114-.085.172-.127l.02-.015c.055-.04.114-.078.172-.114l.049-.032c.04-.025.078-.051.117-.077l.098-.067c.078-.05.156-.102.234-.154l.115-.078c.075-.052.153-.106.232-.155.038-.024.079-.048.123-.064.033-.011.067-.018.098-.018.046 0 .086.012.119.036.065.047.118.094.162.146l.125.145.125.146c.073.085.141.176.207.265l.059.08.03.037.083.107.072.094.04.047.009-.008c.021-.02.045-.04.069-.06l.021-.016c.04-.031.08-.063.124-.087.034-.032.071-.062.11-.088.047-.031.097-.059.147-.086l.058-.032c.065-.037.13-.072.196-.107l.038-.02c.047-.025.095-.05.143-.073.068-.032.135-.057.21-.085l.226-.086.123-.047c.069-.026.136-.05.202-.07l.035-.012.064-.02.047-.013c.018-.005.035-.01.053-.02l.003-.012c.014-.124.018-.248.02-.365.003-.122.006-.26-.003-.397-.006-.112-.011-.233-.014-.369-.002-.055 0-.113.004-.176.003-.04.007-.079.012-.118l.007-.06c.007-.07.012-.14.016-.21l.001-.019c.001-.028.003-.056.009-.083.012-.052.04-.093.084-.124.06-.042.134-.066.216-.07.1-.003.2-.004.285-.004h1.182zm9.637 9.699c-.053 0-.11.003-.175.011l-.019.002c-.052.006-.106.013-.16.014l-.04.001c-.084 0-.172-.009-.259-.027l-.02.003c-.203.03-.41.087-.632.174-.297.13-.563.283-.792.454-.057.045-.103.083-.145.127-.037.037-.073.079-.118.135-.038.054-.074.112-.107.171-.03.054-.06.111-.093.186-.039.095-.083.202-.12.311-.018.054-.033.11-.046.161-.016.059-.026.118-.034.163-.011.11-.02.222-.03.333-.005.058-.01.116-.012.175l-.002.026c-.002.04-.005.08-.001.12.002.029.006.058.01.085.019.116.045.233.077.349l.014.056c.011.044.023.087.036.13.015.044.031.089.054.145.018.04.036.081.057.12l.05.085.02.035.016.028c.035.06.07.12.111.177.058.067.122.13.185.19l.073.073c.033.032.065.064.1.095l.116.098c.099.072.181.127.26.175.087.052.182.095.254.127.059.024.118.046.178.067l.035.013c.054.02.11.039.166.053.104.027.213.043.318.058l.103.015c.052.007.104.012.156.017.032.003.064.004.096.004h.038l.038-.001h.015c.127-.003.231-.01.328-.02.105-.016.208-.042.314-.07.061-.016.116-.032.167-.05.042-.014.082-.032.121-.048l.01-.004-.004.001.01-.004c.057-.026.113-.051.169-.079.06-.03.117-.064.166-.095.089-.055.175-.117.258-.178l.03-.022c.066-.053.127-.11.183-.162.06-.057.117-.114.168-.169l.056-.059c.087-.092.177-.187.258-.287.03-.046.055-.085.075-.122.024-.044.046-.089.067-.134.044-.11.08-.215.11-.32.029-.1.044-.203.06-.317.01-.072.017-.136.013-.199l-.006-.074-.006-.074c-.007-.08-.014-.16-.024-.239-.008-.048-.019-.101-.034-.16-.011-.045-.028-.089-.044-.13-.03-.068-.057-.125-.085-.181l-.01-.021c-.023-.044-.043-.09-.064-.135l-.036-.077c-.073-.155-.143-.278-.22-.386-.082-.1-.179-.197-.297-.297-.08-.058-.168-.107-.25-.152-.02-.01-.037-.02-.055-.031l-.066-.037-.146-.074c-.08-.039-.174-.084-.272-.128l-.114-.05-.136-.06c-.04-.018-.087-.037-.134-.047-.059-.013-.117-.023-.176-.032l-.012-.001-.087-.01zm-10.601-5.262-.071.009c-.137.02-.274.055-.406.089l-.035.009c-.08.02-.158.04-.237.064-.064.018-.13.041-.208.072-.047.021-.102.048-.156.078-.055.03-.108.063-.17.102-.083.052-.17.112-.272.19-.093.076-.18.163-.253.238-.08.08-.156.164-.232.256-.044.057-.09.12-.136.185-.042.06-.083.128-.13.218-.09.17-.16.313-.22.452l-.003.003h.001l-.004.013c-.074.189-.112.393-.142.585-.018.176-.028.349-.03.514 0 .093 0 .187.004.288.002.08.012.161.02.237.029.197.063.367.107.52.009.03.02.06.03.088l.015.042.03.081.015.041c.028.075.058.15.089.225.03.067.066.136.115.217.042.072.083.134.123.19.08.097.181.182.277.26.054.036.11.071.168.103l.128.076.045.027.166.1c.05.028.1.05.16.077l-.012-.006c.095.035.176.06.256.077.087.02.176.036.265.05.206.025.416.032.596.036.096.003.193.003.29.004h.075c.072 0 .149 0 .227-.006.206-.03.37-.07.518-.125.19-.085.354-.174.503-.274l.053-.035c.149-.1.303-.203.45-.312.068-.054.14-.113.208-.18l.026-.028c.028-.028.056-.056.082-.086l.094-.114c.07-.093.136-.19.203-.299.074-.12.127-.216.17-.31.033-.08.057-.16.072-.236.016-.084.031-.17.046-.266l.005-.047.022-.182c.01-.094.015-.187.02-.265.01-.182.007-.329-.007-.462-.032-.216-.066-.438-.14-.647l-.003-.008-.004-.01-.014-.036.004.013-.074-.16-.09-.194c-.046-.105-.094-.206-.16-.299-.033-.041-.07-.081-.106-.122l-.06-.071-.04-.05c-.064-.075-.136-.149-.215-.22-.048-.042-.095-.088-.141-.133l-.098-.094c-.076-.072-.146-.132-.212-.185-.16-.118-.306-.208-.447-.274-.05-.018-.103-.025-.155-.031-.072-.009-.128-.013-.18-.013l-.047.001-.13.006c-.02 0-.042.004-.063.007l-.024.003-.107.012c-.036.004-.074.006-.112.006-.12 0-.243-.02-.37-.061.013-.009.025-.017.038-.023zm11.444-5.76.045.006.046.015c.062.027.081.094.098.153l.007.028c.014.044.025.091.034.14l.018.091c.018.084.037.172.029.26-.006.065-.018.13-.03.192-.008.042-.016.083-.022.125l-.003.014c.063-.026.118-.04.17-.044l.019-.001c.066 0 .128.027.194.056l.05.023.04.018.034.012c.017-.01.033-.022.05-.033l.018-.013.056-.04c.042-.035.083-.072.121-.11l.026-.025c.027-.026.054-.052.079-.08l.051-.07v-.001l.013-.017.07-.089.013-.015.028-.034c.022-.029.05-.048.087-.061.01-.003.02-.005.033-.005.016 0 .033.003.047.005.027.005.056.03.071.044.012.012.025.024.038.034l.074.06.025.018.069.051.007.006.008.007c.034.025.067.051.1.078l.02.017.02.017.037.03c.047.034.095.067.144.098l.034.023c.034.023.07.046.106.066.069.037.13.077.186.122.044.034.092.076.12.126.054.092.025.196-.02.264l-.058.083-.045.065c-.07.105-.144.214-.227.315-.038.047-.077.092-.116.138l-.099.116c-.037.046-.079.09-.119.131-.021.023-.043.046-.062.072l.04.082c.005.012.01.024.017.036l.02.04c.016.039.032.078.046.118l.04.117c.009.03.02.06.025.09l.005.026.02.094c.02-.005.042-.008.063-.011.03-.005.058-.012.088-.018.04-.008.08-.017.122-.022h-.016l.053-.011c.024-.006.047-.012.071-.016.044-.007.09-.012.142-.015.036-.003.07-.003.106-.004h.042l.012-.004.019-.005c.013-.003.026-.004.04-.004.049 0 .094.018.128.053.05.048.055.123.06.19l.004.032.012.08.005.032c.007.041.014.083.018.125.004.04.006.08.007.12l.001.075v.024c0 .028.003.056.007.084l.018.102c.011.059.023.12.028.181l.003.055.006.087c.006.046.01.091.013.138l.003.138c0 .053 0 .097-.023.14-.028.056-.09.1-.156.115-.034.008-.069.01-.102.014l-.03.003-.077.011c-.077.013-.153.033-.227.051-.064.017-.126.034-.187.058-.039.018-.077.04-.114.06l-.084.045c.006.045.009.082.008.117-.002.068-.015.137-.041.21-.031.085-.066.162-.105.23l-.024.043-.025.043.015.02c.023.027.053.05.081.072l.023.019.04.026c.02.012.038.023.056.037.04.031.075.067.111.111l.009.011.012.017c.016.02.038.044.064.066.018.016.041.037.06.062l.01.012.021.019c.025.022.039.05.05.078.009.022.013.048.013.082.001.09-.055.156-.11.22l-.032.04-.007.01c-.006.008-.013.017-.02.023-.038.049-.078.096-.117.143l-.015.017c-.04.048-.086.093-.13.136l-.067.068-.03.032c-.023.024-.045.048-.069.07-.035.034-.072.068-.11.099-.041.035-.087.065-.131.094l-.075.048.01-.006-.024.018-.006.005-.045.032c-.016.011-.026.018-.041.025-.02.009-.037.017-.058.02l-.012.001-.052.005c-.045 0-.089-.013-.122-.037-.025-.018-.048-.038-.072-.057l-.015-.013-.055-.038c-.032-.022-.066-.045-.097-.07-.028-.024-.054-.05-.08-.076l-.011-.012c-.02-.02-.039-.039-.055-.06-.023-.028-.044-.058-.065-.087l-.032-.045c-.012-.016-.023-.033-.032-.05-.014.005-.03.01-.044.011-.025.004-.05.007-.075.008h-.02l-.029.002c-.034.007-.07.013-.106.016-.031.002-.063.003-.095.003h-.032l.007.049.01.084.003.034c.008.06.016.115.02.172.003.05.004.098.004.148v.02l.001.06c0 .027-.004.054-.008.081l-.004.026c-.003.023-.008.045-.013.068l-.01.048-.002.027c-.002.027-.007.054-.013.08l-.002.01c-.01.052-.045.117-.09.138-.031.014-.06.02-.095.021h-.048l-.053.001-.016-.001-.05-.007-.027-.005c-.047-.005-.095-.005-.144-.006h-.081c-.024 0-.048 0-.072.002l-.08.017c-.048.01-.098.022-.148.028-.082.01-.165.01-.239.01h-.425c-.036 0-.08-.002-.12-.024-.03-.016-.055-.04-.069-.065-.027-.047-.027-.103-.027-.156v-.651c0-.05.002-.102.007-.165.003-.037.009-.074.015-.11-.036-.012-.064-.033-.1-.059-.045-.033-.078-.06-.108-.087-.026-.024-.052-.049-.08-.071-.018-.014-.037-.026-.055-.039l-.03-.022c-.024.032-.051.064-.086.1-.022.024-.045.048-.068.07l-.104.109-.018.02-.065.069-.042.04-.042.042c-.056.056-.104.102-.157.145l-.028.023-.014.012-.06.048.01-.005-.048.036c-.03.023-.062.046-.102.054-.016.003-.032.005-.054.006-.022 0-.051-.009-.077-.024-.02-.011-.038-.026-.06-.043l-.061-.042-.036-.024c-.038-.026-.073-.056-.107-.085l-.029-.024-.083-.071-.025-.022-.031-.027c-.031-.026-.063-.053-.092-.082l-.054-.057-.04-.042-.028-.029-.066-.068-.096-.105c-.023-.026-.044-.053-.064-.081l-.016-.022-.03-.03-.03-.026c-.027-.02-.048-.036-.062-.06-.018-.029-.027-.062-.027-.093.002-.056.037-.109.063-.143l.131-.17.056-.077c.05-.07.102-.143.16-.21.034-.038.064-.072.099-.101l.033-.027-.008-.01-.01-.017c-.013-.021-.026-.041-.036-.064-.021-.046-.036-.087-.047-.126-.007-.03-.01-.061-.014-.092l-.003-.03-.002-.013c-.006-.043-.012-.086-.027-.126l-.022.005c-.022.004-.046.008-.07.008-.018 0-.035-.002-.052-.006l-.04-.009-.07-.015c-.067-.01-.138-.021-.208-.046-.057-.02-.12-.04-.182-.052-.038-.004-.08-.008-.12-.024-.06-.023-.103-.07-.13-.143-.013-.034-.017-.071-.021-.103-.006-.049-.009-.1-.008-.158 0-.03.003-.059.007-.088.002-.022.005-.044.006-.067.005-.085.005-.172.005-.256v-.065c0-.033.004-.067.007-.1l.005-.044.005-.09c.001-.03.005-.06.01-.09l.003-.029.009-.07.007-.04.003-.02.004-.051.004-.05c.002-.025.006-.05.01-.074l.005-.029v-.016c.002-.02.003-.04.008-.057.016-.054.059-.096.112-.108.02-.006.045-.009.07-.009.022 0 .043.004.063.008l.02.004.036.004.068.008c.032.004.065.007.098.008.05.003.102.009.157.018l.022.003c.036.006.072.011.107.018l.045.01.052.01.01.001.008.002v-.017c.001-.029.002-.058.005-.086.007-.068.027-.137.067-.223.022-.048.05-.094.08-.141l.008-.014.009-.012-.01-.01-.005-.008-.014-.017-.029-.037-.001-.001-.003-.003c-.036-.047-.067-.094-.099-.141-.029-.043-.057-.085-.088-.127l-.053-.062-.014-.016c-.028-.033-.054-.067-.082-.105-.022-.026-.044-.05-.068-.07l-.01-.007c-.02-.014-.041-.029-.057-.047l-.027-.033c-.024-.028-.05-.059-.07-.092-.019-.035-.033-.07-.047-.106-.008-.015-.015-.03-.019-.047-.013-.056-.003-.11.028-.168.03-.053.073-.101.106-.137l.057-.062c.048-.053.096-.105.147-.156.055-.056.117-.106.178-.154l.077-.063c.063-.052.13-.101.196-.148l.013-.008.02-.017c.056-.042.114-.087.166-.138l.022-.021c.04-.038.08-.077.124-.109.032-.023.07-.047.112-.047.013 0 .025.002.038.006.046.016.086.047.124.077l.013.01c.059.047.098.113.135.176.016.027.032.054.05.08l.031.034.028.031.018.021.042.05c.044.05.082.09.12.124l.034.03c.031.025.063.053.09.084l.007.008c.011.013.022.026.03.04l.016.043c.006.02.01.038.01.058v-.015l.012.051.027-.042c.03-.042.068-.078.117-.115.032-.024.067-.046.104-.064.031-.015.064-.028.097-.041l.029-.01c.04-.018.083-.034.124-.05l.02-.006c0-.04-.005-.08-.008-.116-.016-.103-.034-.19-.055-.271l-.02-.06c-.012-.037-.016-.065-.02-.09-.005-.04-.007-.081-.007-.112-.002-.045-.003-.09-.001-.136 0-.029.007-.082.041-.114.025-.022.053-.037.094-.05.023-.008.046-.014.069-.019.058-.012.117-.024.176-.033.059-.01.117-.021.175-.033s.116-.023.174-.032l.06-.01c.045-.008.089-.016.133-.02l.161-.018.027-.004c.052-.008.105-.016.159-.02.05-.005.105-.007.173-.007l.128-.001zm-.979 2.807-.072.016-.029.008c-.08.019-.163.039-.243.065l-.008.003-.08.04c-.055.027-.108.059-.158.095-.06.048-.114.103-.162.164-.038.05-.071.111-.107.19-.027.067-.047.127-.06.186-.017.064-.03.118-.039.174-.007.073-.007.147-.008.219v.083l.003.048.005.044.004.046c.01.058.021.127.04.194.018.061.041.126.07.198l.005.011c.01.024.021.048.034.07s.028.043.043.063l.038.055.058.08c.036.045.07.085.11.118.068.05.139.091.208.123l.004.002c.026.01.043.019.06.026l.017.009c.028.01.057.022.09.029l.036.008.073.015c.045.005.09.01.136.017l.056.01.044.01c.047.004.089.007.128.007.026 0 .052-.001.078-.004.098-.015.201-.044.324-.09.078-.035.143-.072.2-.113.039-.032.074-.07.1-.097.03-.034.061-.067.09-.102.025-.036.048-.073.071-.111l.038-.06.023-.038c.036-.054.072-.111.1-.17.028-.071.048-.133.06-.19.012-.056.023-.117.034-.193.006-.048.01-.102.01-.169v-.023c.002-.052.003-.106-.002-.159-.007-.037-.019-.074-.03-.11l-.013-.04-.012-.042-.011-.04c-.006-.02-.014-.04-.022-.059l-.01-.023-.017-.04-.054-.119c-.018-.037-.04-.08-.067-.119-.015-.016-.03-.031-.047-.046-.034-.024-.07-.046-.107-.068-.025-.014-.05-.03-.074-.045l-.039-.027c-.02-.015-.041-.03-.063-.043-.03-.018-.062-.033-.09-.045l-.037-.014c.004.008.01.016.012.027l-.03-.005-.089-.015c-.068-.006-.137-.01-.207-.011h-.092l-.036-.002c-.038-.001-.075-.005-.113-.01-.054-.007-.113-.011-.174-.011z" fill="#fff" mask="url(#h)"/></g><g transform="translate(45.95 28.36)"><use fill="#00aea4" xlink:href="#d"/><path d="m24.602 12.21c.054.012.104.033.148.051l.118.054.117.058.065.032.072.035c.07.033.131.062.19.097.08.046.161.1.265.176.118.086.234.18.348.278l.17.147.012.01c.16.14.325.283.47.444.072.08.137.163.198.242.07.092.139.185.207.278l.056.078.054.078.011.016.066.095c.062.09.122.18.18.271.135.212.239.388.327.555.044.084.096.185.143.291.026.06.053.122.08.19l.044.109.019.047.014.035.06.155c.028.08.056.163.082.248l.062.215.057.216.006.022c.014.056.027.11.039.167l.012.067.014.098c.015.11.03.221.041.333.005.05.01.1.01.15l.001.06-.002.076v.015l-.003.12-.001.04-.005.154-.01.213-.009.095-.01.103c-.005.067-.01.134-.02.2-.011.074-.027.147-.044.227l-.02.094c-.011.052-.022.104-.036.155l-.02.067-.022.066-.004.01-.08.218-.038.094-.038.087-.023.054-.005.012-.007.017c-.02.044-.04.09-.063.133-.028.05-.056.098-.086.146l-.046.073-.05.072-.052.076-.046.095-.1.208c-.028.062-.058.126-.094.187l-.047.074-.053.075-.015.022c-.051.072-.107.143-.16.209l-.076.092-.035.043c-.037.047-.074.094-.108.143l-.036.054-.037.053-.046.069-.055.082-.068.1c-.044.062-.091.122-.136.177-.111.14-.23.272-.333.383-.094.102-.193.203-.296.299-.053.049-.101.094-.156.137-.055.045-.11.09-.162.138l-.096.088-.168.162-.074.07c-.08.074-.163.144-.25.21l-.13.095-.032.021-.042.03-.152.103-.153.102-.12.08-.023.016c-.075.05-.151.102-.229.15l-.09.057-.09.055-.022.013-.087.052-.088.054-.188.12-.03.018-.03.02-.03.02-.11.071c-.217.135-.461.266-.769.41l-.057.028-.057.028-.05.024c-.077.038-.154.076-.233.112-.138.062-.276.122-.415.18-.146.062-.3.115-.459.16l-.191.048-.192.042-.018.003-.051.01-.149.03-.176.031-.065.012-.066.012-.139.027-.018.004c-.093.018-.19.037-.285.049l-.133.02-.132.02-.188.03c-.186.026-.339.046-.48.06l-.04.006c-.09.01-.19.021-.291.026l-.153.003h-.029l-.099-.004c-.108-.003-.216-.007-.323-.013l-.177-.013-.177-.017-.07-.006c-.157-.016-.283-.032-.395-.05-.059-.01-.118-.017-.177-.023-.072-.008-.143-.016-.214-.028l-.117-.023-.076-.016-.105-.018-.105-.018-.115-.018-.037-.006c-.127-.023-.259-.046-.385-.082l-.154-.048-.155-.054-.067-.023-.063-.022-.434-.146c-.073-.024-.146-.05-.217-.078l-.093-.035-.108-.04c-.104-.042-.208-.087-.309-.135l-.102-.046-.101-.046-.145-.067c-.106-.047-.237-.106-.358-.17-.143-.075-.291-.156-.44-.24-.222-.127-.434-.272-.625-.411l-.185-.136-.178-.133c-.079-.06-.157-.124-.228-.193l-.066-.065-.18-.18-.117-.112-.203-.188-.015-.013c-.05-.048-.103-.096-.15-.15l-.15-.182-.143-.19-.019-.027c-.098-.126-.185-.241-.262-.361l-.028-.045-.03-.044-.023-.035-.036-.055-.058-.093-.014-.022-.036-.057-.077-.122-.039-.062-.05-.08-.052-.081-.046-.072c-.06-.093-.12-.188-.175-.286l-.098-.187-.095-.195-.015-.03c-.062-.13-.127-.27-.197-.429-.137-.307-.24-.625-.323-.896l-.024-.087-.02-.088-.012-.05-.045-.193-.008-.037-.003-.013-.036-.187-.031-.194-.018-.113c-.024-.147-.045-.298-.062-.448l-.003-.018-.001-.02-.004-.038-.013-.155-.01-.155-.004-.055-.007-.107-.02-.26c-.006-.08-.01-.161-.01-.25v-.094l.003-.095.002-.12v-.056l.003-.189v-.074c.002-.116.003-.235.01-.352.008-.103.022-.208.037-.315l.022-.159.022-.2c.01-.1.022-.2.035-.3l.033-.202.04-.198.024-.124c.029-.146.064-.318.113-.49l.083-.283.034-.114.033-.114.017-.059c.04-.138.082-.281.133-.418.059-.156.122-.32.196-.476.081-.169.159-.316.238-.45.041-.07.084-.14.129-.21l.041-.06.048-.063.05-.067.095-.135.123-.172.08-.131c.096-.15.187-.284.28-.413.111-.155.216-.287.32-.402.137-.154.283-.304.43-.45l.218-.216.014-.013.05-.05c.127-.124.261-.241.376-.339l.083-.067.086-.062.12-.084.079-.051.047-.03c.147-.095.3-.188.453-.28l.195-.119.195-.12.136-.088.143-.092.152-.092.063-.037c.113-.063.252-.143.388-.214.148-.079.3-.15.454-.215l.088-.034.089-.032.068-.025.058-.022.19-.071c.156-.061.309-.12.464-.17l.236-.066.03-.008c.304-.073.647-.156.98-.228.15-.032.298-.056.477-.084.172-.028.345-.043.514-.047h.098c.166.003.333.021.498.044l.247.036.086.013.13.02.124.028.034.009c.029.007.058.015.086.025.034.012.067.025.1.039.074.03.15.064.228.102.032.015.064.034.098.058l.055.04.009.007.009.012-.005-.008.08.068.073.076c.046.05.103.12.142.198.064.13.106.274.131.44.011.075.019.155.023.25.004.087.001.16-.008.228-.01.064-.021.139-.038.211-.014.06-.037.126-.07.201l-.058.117-.065.104-.035.052-.008.012-.071.101c-.05.068-.101.134-.154.2l-.03.035-.03.036-.02.023-.053.061c-.068.088-.115.188-.162.29-.015.034-.03.07-.04.105-.01.03-.017.06-.022.092-.013.092-.015.187-.005.29.003.02.008.04.014.061l.016.029.034.034.034.031.012-.007.033-.02.048-.031.056-.036.058-.033.082-.046.083-.046.129-.068.125-.06.082-.039.154-.077.05-.025.02-.01.097-.05.219-.123.031-.018.073-.042c.115-.065.228-.129.346-.19l.121-.058.13-.057.095-.042.086-.037.094-.041.254-.113.253-.12.365-.181c.11-.055.22-.108.332-.155.132-.056.265-.109.4-.16l.103-.038.103-.037.016-.006.123-.043c.246-.089.491-.18.736-.272l.067-.025.067-.026.049-.019c.164-.063.35-.135.536-.19l.165-.043.166-.036.017-.004c.117-.025.234-.048.352-.07.113-.02.235-.04.36-.057l.014-.001.008-.002h.007l.11-.01.115-.007.124-.003h.043l.026-.001h.104c.085.001.15.008.213.021.066.015.115.028.172.053.019.008.037.016.054.028l.012.008.012.009.012.008.015.012c.026.018.052.038.076.059l.042.043.04.047.026.03c.04.046.085.102.122.163.03.05.05.1.073.158.023.06.03.123.035.193.006.074.005.138-.005.2-.01.065-.024.127-.039.184-.032.124-.078.241-.134.348-.035.066-.066.116-.098.16l-.037.05-.037.049-.017.022-.021.027-.081.104-.084.101-.012.016-.063.076-.028.035c-.067.087-.144.185-.23.272l-.116.112-.115.102-.039.034c-.049.043-.1.085-.151.126l-.14.116-.038.034-.039.035-.02.019-.042.037-.144.123c-.093.078-.193.156-.307.24l-.1.072-.1.072-.076.055c-.085.063-.175.132-.26.208l-.117.11-.014.013-.03.028-.058.055-.121.11-.123.107-.03.027-.039.035-.017.015-.018.014-.017.01.014.002c-1.756.974-5.19 2.668-7.534 3.707.275.068 1.841-.43 3.864-1.415.868-.405 2.695-1.291 3.67-2.292l-.014-.002.046.009zm-6.905 8.272h-.04l-.039.002-.042.004-.055.005c-.002.006-.005.013-.01.02l-.023.027-.028.015-.015.006-.087.04-.076.04-.021.01-.073.04-.075.049-.012.009-.02.024c-.008.01-.02.017-.033.02l-.064.058c-.037.034-.08.074-.117.12-.045.06-.086.126-.12.198-.057.135-.1.287-.132.48-.008.062-.01.124-.008.185l.006.114.01.114.002.022c.007.063.015.127.035.187.015.03.035.062.06.097.088.11.194.202.296.285.05.039.102.075.154.107.052.033.108.06.15.079.038.014.073.027.11.036.028.007.057.012.086.017.09.012.171.018.254.02.057 0 .115-.003.166-.007l.072-.007.022-.002c.078-.01.157-.02.231-.046.046-.02.083-.04.116-.062.082-.063.152-.12.213-.176l.084-.085.078-.09.015-.018c.044-.058.081-.119.11-.181.025-.059.048-.121.07-.191.016-.057.034-.119.045-.182.008-.062.01-.113.01-.161-.002-.055-.006-.11-.01-.164-.008-.055-.018-.106-.032-.158-.012-.042-.027-.083-.043-.124-.058-.133-.14-.252-.211-.348-.022-.027-.042-.052-.066-.073-.066-.051-.144-.098-.252-.152-.088-.044-.177-.085-.271-.128-.069-.03-.14-.05-.21-.062l-.086-.008-.088-.004h-.036zm.059.643c.045 0 .09.007.134.018.055.014.106.04.144.06.012-.004.025-.006.039-.005.046 0 .088.025.109.063.032.06.057.123.083.192.02.05.035.1.047.148.018.077.022.137.011.196-.016.09-.037.192-.088.282-.018.032-.042.074-.07.113l-.058.076c-.027.036-.055.072-.096.103-.022.017-.045.035-.073.05-.026.015-.055.03-.084.037-.028.007-.057.01-.087.01l-.028-.002c-.048-.005-.097-.014-.16-.032-.095-.027-.179-.084-.263-.182-.054-.062-.094-.123-.122-.185-.016-.034-.03-.072-.043-.113-.015-.049-.022-.101-.022-.154l.005-.08.002-.01c.012-.093.026-.188.082-.266.072-.1.164-.21.295-.27.075-.034.16-.05.243-.05zm4.003-1.187c-.033 0-.067 0-.1.002-.073.012-.149.03-.228.054l-.123.04h-.001v.001c-.041.017-.083.035-.12.058-.045.03-.09.06-.133.091-.059.05-.108.097-.15.144-.056.083-.116.173-.162.272-.027.066-.051.125-.07.187-.017.064-.03.13-.039.187-.014.108-.028.22-.022.33.012.094.028.164.049.227.028.064.06.12.097.171.049.062.106.118.16.172l.062.06c.067.07.146.15.232.222.021.015.043.029.066.041.065.025.132.039.206.053.108.015.206.023.298.024.06.001.12 0 .177-.005.053-.008.104-.021.154-.039.139-.06.266-.13.377-.208.065-.051.149-.12.221-.205.036-.047.064-.091.086-.136.028-.068.05-.135.067-.199.018-.067.03-.135.04-.198.008-.061.014-.121.02-.183.004-.051.008-.102.005-.152-.018-.1-.047-.204-.09-.319l-.04-.084-.047-.081-.047-.077-.03-.05-.03-.048-.083-.095c-.009-.01-.017-.02-.023-.032l-.082-.056c-.029-.017-.058-.031-.088-.045-.114-.048-.233-.083-.351-.103-.078-.01-.168-.02-.258-.02zm.08.425.041.003.04.005.01.001.012.002.003.001h.001l.009.003h.011c.042.006.09.014.141.033.046.017.095.034.134.063.035.026.075.058.106.097l.043.054.042.055.013.018c.016.016.026.034.032.056.005.022.004.044-.002.066-.001.006-.004.012-.006.017.01.035.016.072.018.112.002.035.001.064-.003.09-.01.079-.023.138-.039.194-.036.125-.11.239-.207.32-.046.039-.095.072-.149.102-.034.02-.076.04-.12.052-.033.009-.065.013-.097.016-.02.002-.039.003-.058.002-.042 0-.086-.006-.133-.016-.083-.018-.145-.039-.198-.067-.048-.025-.085-.051-.115-.08-.03-.028-.05-.051-.066-.076-.017-.027-.029-.053-.038-.078-.022-.057-.035-.121-.041-.202-.004-.056 0-.117.011-.198.01-.072.021-.146.045-.217.02-.06.05-.118.093-.179.055-.077.107-.13.162-.164.062-.04.12-.064.173-.073l.066-.009.063-.003h.004zm-7.363-1.94c-.06 0-.121.001-.187.005-.011.02-.026.036-.043.045l-.027.01-.03.003c-.102.014-.209.028-.307.064-.044.018-.087.04-.132.066l-.07.044-.008.013c-.014.02-.034.032-.056.034-.039.033-.077.07-.12.12-.049.063-.092.128-.132.19-.042.064-.081.134-.116.21-.036.087-.064.185-.083.29-.015.125-.016.263-.002.434.01.07.02.126.037.178.02.068.041.135.065.202.017.035.038.071.068.111.057.073.12.14.19.197.036.028.076.058.118.083l.061.034.066.03.017.007.233.095c.098.038.189.064.277.08l.087.009.087.004v.001l.084-.003.08-.008.081-.016.072-.022.05-.021.05-.023.074-.032.037-.018c.066-.035.122-.069.17-.103.042-.033.08-.068.114-.107.035-.046.068-.097.102-.154.028-.048.05-.1.075-.154.023-.054.043-.11.062-.167.01-.03.02-.059.035-.097.015-.04.03-.08.042-.122.012-.043.021-.086.03-.129.01-.075.02-.164.015-.251-.004-.076-.012-.157-.024-.256-.008-.052-.018-.108-.037-.165-.015-.045-.03-.09-.048-.136-.025-.062-.056-.117-.091-.167-.05-.06-.102-.124-.163-.177l-.068-.04-.073-.035-.122-.055c-.081-.034-.162-.059-.246-.074-.107-.016-.203-.024-.294-.026zm-.29.55.054.004c.12.014.232.053.345.097.024-.017.054-.025.085-.024.026 0 .052.007.076.02.031.017.064.037.093.064l.028.03.03.04.008.01.016.022.014.022.035.06.026.05.01.022c.017.038.036.077.046.118.013.048.02.098.021.149s-.008.103-.018.157c-.007.039-.017.079-.029.117-.021.072-.06.148-.12.24-.088.138-.177.23-.28.294-.073.045-.161.066-.27.064-.044-.001-.092-.006-.147-.014-.097-.016-.172-.038-.244-.07-.045-.021-.091-.045-.132-.082-.02-.019-.039-.039-.057-.06-.047-.06-.084-.125-.116-.207-.02-.05-.043-.11-.055-.175-.032-.177-.025-.326.021-.456.027-.075.056-.139.088-.194.028-.047.065-.095.115-.147.029-.03.057-.054.09-.075.036-.025.076-.04.106-.051.047-.017.101-.025.16-.024zm7.418-2.257-.052.001c-.027.006-.053.012-.08.021-.018.008-.036.018-.054.029-.03.025-.057.053-.088.089l-.06.085-.05.086-.002.005-.036.097-.029.095-.009.03c-.027.09-.067.206-.131.31-.037.06-.077.118-.12.171l-.069.078-.012.012c-.03.033-.062.066-.097.093l-.028.023-.033.024-.07.05-.06.041-.062.038-.014.008c-.177.1-.36.202-.553.274-.056.02-.12.044-.187.065l-.102.03-.086.023c-.074.02-.148.04-.223.057-.097.024-.21.05-.325.06l-.045.003-.045.004-.071.005h-.012l-.071.006-.072.003h-.01c-.063-.002-.13-.01-.202-.029l-.113-.032-.071-.025-.072-.024c-.052-.018-.109-.037-.165-.063l-.098-.046-.04-.02c-.048-.022-.087-.043-.122-.064-.09-.057-.167-.113-.237-.172l-.057-.052-.127-.127-.058-.053-.058-.054-.034-.033c-.02-.02-.041-.04-.063-.059-.1-.074-.193-.132-.285-.177-.056-.023-.111-.039-.168-.05l-.022-.001-.05-.001-.029.001c-.024.004-.048.01-.071.018-.029.012-.057.028-.084.046l-.024.023-.02.03c-.01.026-.015.052-.02.078-.002.02-.004.04-.003.06.006.036.016.072.03.11.021.046.048.093.086.15.04.05.086.095.13.135l.064.056.039.029.061.047.06.05.05.042.043.039.039.035.07.054.015.013.02.016c.038.03.079.06.123.09l.062.037.063.034.034.019c.087.046.176.094.266.136.126.047.265.089.438.131l.088.02.088.015.073.013.062.012.154.028c.077.01.155.022.232.03.084.007.168.01.253.014l.13.004.111-.001c.076-.003.153-.009.228-.017.076-.01.135-.019.19-.03l.22-.046.094-.023.09-.028.053-.018.053-.018.055-.018v-.002.001h.001l.004-.003.002-.001.188-.09.176-.098.182-.106c.06-.035.114-.067.165-.105l.112-.087.067-.053c.062-.048.133-.106.2-.165l.086-.084.081-.087.018-.02c.055-.06.109-.119.161-.18.078-.1.147-.216.21-.354l.029-.083.023-.094.005-.023c.01-.05.021-.099.03-.149.009-.062.011-.111.008-.158-.006-.039-.014-.072-.025-.104l-.016-.029-.019-.029-.01-.001-.035-.008-.028-.02-.011-.01c-.021-.023-.042-.045-.066-.066-.007-.006-.015-.01-.024-.015l-.04-.013-.048-.012zm2.986-.293c-.067-.001-.126 0-.183.006-.095.014-.192.04-.296.08-.033.013-.065.028-.096.045-.037.019-.07.041-.101.063-.085.065-.164.143-.243.235-.032.043-.057.079-.076.113-.02.032-.036.066-.05.1-.023.053-.04.102-.055.15-.013.045-.022.092-.031.142-.02.152-.023.311-.007.475.017.135.04.278.091.416l.054.11.059.1.03.045c.031.049.063.098.097.146.05.063.11.125.185.19l.072.045.074.041.03.016c.04.023.08.045.122.065.059.023.12.037.177.048.07.01.154.02.24.021.037.001.074 0 .112-.003.123-.018.242-.048.352-.088.05-.021.1-.046.148-.07.057-.03.1-.054.138-.08.048-.04.103-.086.148-.138.077-.1.143-.208.196-.32.017-.042.033-.085.047-.13.015-.047.027-.096.037-.154.008-.069.017-.148.02-.227 0-.06-.002-.123-.01-.194-.013-.1-.032-.19-.055-.274l-.038-.12-.023-.05-.028-.064c-.02-.046-.042-.095-.068-.142l-.03-.055c-.016-.03-.032-.06-.05-.09-.02-.034-.043-.066-.066-.098l-.058-.064c-.06-.051-.12-.102-.181-.151-.025-.019-.052-.036-.084-.053-.067-.026-.138-.046-.219-.06-.095-.012-.192-.018-.29-.024l-.046-.002zm.214.607.025.002.025.005.017.007c.076.032.155.065.224.112.06.04.12.085.166.138.05.06.097.127.14.206.045.082.072.15.086.218.018.087.015.179-.009.28-.021.09-.05.168-.09.24-.023.041-.053.078-.083.114-.035.041-.077.07-.123.104-.138.098-.302.15-.461.148l-.044-.003c-.086-.007-.159-.024-.227-.054l-.065-.03-.063-.04-.018-.015c-.028-.02-.057-.043-.08-.068-.07-.076-.12-.166-.143-.255-.022-.084-.03-.172-.022-.253.019-.208.077-.361.177-.467.045-.048.092-.095.14-.14.057-.052.122-.093.2-.124.018-.008.038-.015.057-.02l.01-.017c.025-.04.066-.071.112-.083.016-.004.032-.005.05-.005zm-10-3.767-.035.001c-.036.002-.072.005-.108.01-.05.005-.101.012-.151.02-.086.016-.168.046-.251.071-.085.027-.17.056-.25.094-.069.033-.135.07-.197.113-.07.049-.134.107-.198.164-.057.051-.115.105-.164.164-.06.073-.115.149-.172.223-.049.063-.095.126-.136.194-.04.065-.073.135-.104.205-.04.086-.074.173-.107.262l-.042.112-.04.114-.038.11-.009.018c-.06.123-.11.248-.15.379l-.056.195-.058.195-.06.176-.052.167-.057.165-.056.165c-.033.11-.065.22-.108.326l-.048.097-.044.1-.053.144-.014.034c-.022.064-.002.132.04.18.043.05.102.057.162.064.036.004.072.002.11 0 .028 0 .056-.002.085 0 .148.006.296.013.443.035l-.047-.007.247.035c.061.011.121.028.182.039l.118.017.118.01.203.02.108.009.324.025.215.02.11.01.217.019.11.01c.094.007.19.008.286.002l.143-.015h-.083c.128-.002.256-.003.383-.028l.157-.032c.05-.012.1-.024.15-.042.1-.036.197-.087.287-.15.052-.036.102-.078.149-.122.021-.02.04-.042.06-.063.025-.017.048-.034.071-.053.045-.035.082-.076.12-.118.039-.045.08-.09.116-.138.027-.036.05-.077.071-.117.029-.057.057-.114.082-.172l.062-.148.056-.15.122-.334.005-.026-.005-.025.004-.009c.01-.024.016-.046.01-.073-.005-.024-.02-.044-.038-.058-.013-.008-.028-.012-.044-.012-.02 0-.04.006-.056.02l-.018.025-.035.08-.006.01-.025.06.009-.018-.087.192-.1.202-.082.175c-.033.052-.067.103-.105.15-.034.041-.071.077-.112.112-.045.039-.088.08-.135.118-.155.109-.33.186-.506.258-.09.035-.181.065-.274.092-.094.028-.193.045-.29.058-.069.006-.137.01-.206.012-.071.003-.142-.002-.213-.007-.147-.01-.294-.02-.44-.037-.072-.01-.146-.013-.218-.018-.07-.004-.14-.012-.21-.016-.139-.01-.277-.026-.414-.045-.053-.01-.104-.022-.156-.037l-.108-.023-.108-.017-.087-.013-.098-.016-.097-.014-.143-.021.028-.05c.007-.017.012-.036.017-.055l.013-.057.03-.119.029-.115.027-.115c.034-.154.085-.304.127-.456.086-.312.17-.625.26-.935.036-.12.074-.24.113-.36.037-.116.075-.229.122-.34.073-.152.171-.289.272-.423.089-.108.195-.205.303-.291.084-.06.176-.108.27-.149.154-.061.312-.116.477-.139.12-.01.239-.015.359-.012.059.002.117.006.176.01.051.004.103.006.154.013.021.004.042.008.063.014.057.014.116-.009.145-.059.006-.008.011-.017.014-.026l.003-.015v-.015l-.004.014.004-.026c-.002-.04-.021-.08-.054-.104l-.036-.017c-.089-.021-.177-.031-.267-.042-.082-.01-.165-.019-.248-.025l-.052-.003-.053-.002h-.01l-.039-.003zm.167 1.218-.054.001c-.045.008-.085.018-.121.03-.07.033-.13.067-.182.103-.043.034-.08.074-.115.114l-.066.08-.034.04-.035.042-.021.025-.036.042-.072.084c-.053.068-.098.134-.138.202-.12.2-.242.414-.36.634-.045.083-.087.153-.127.216l-.06.088-.038.052-.01.014-.018.024-.016.022.203.005.152.003h.042c.06-.002.12-.006.18-.011l.19-.025.138-.018.139-.017.022-.003c.157-.02.32-.041.478-.079l.117-.029.116-.033.017-.005.012-.003c.052-.016.105-.032.157-.05.046-.02.092-.045.137-.076.05-.04.094-.09.147-.154.036-.047.069-.1.096-.156.008-.023.015-.049.02-.078.006-.047.007-.087.005-.125-.006-.04-.017-.082-.034-.128-.02-.046-.042-.091-.064-.136l-.035-.066-.04-.062-.08-.102-.035-.045-.035-.045-.09-.105-.096-.1-.024-.024-.01-.012-.01-.012-.017-.01c-.05-.031-.102-.06-.157-.085-.023-.009-.046-.017-.07-.022-.023-.003-.046-.004-.068-.005zm6.658.423h-.014c-.027.005-.052.01-.077.019-.016.008-.032.016-.047.026-.02.016-.04.035-.059.055-.02.027-.035.05-.048.074-.008.023-.015.05-.021.082-.004.034-.005.064-.003.092l.005.022.006.022.02.034c.014.016.03.032.045.046.025.018.052.034.086.051.023.008.045.015.069.02l.05.003c.02 0 .038 0 .057-.002.031-.004.057-.01.081-.019.017-.008.032-.017.047-.027.014-.011.027-.024.039-.038.008-.01.015-.02.022-.033l.005-.02c.004-.034.005-.066.003-.096-.004-.023-.011-.045-.02-.066-.013-.03-.03-.061-.047-.09-.016-.027-.022-.058-.017-.09-.025-.017-.052-.034-.078-.048-.019-.006-.037-.012-.056-.016h-.017zm-3.278-2.12-.042.02-.01.005c-.056.026-.11.052-.164.08-.077.039-.15.084-.212.122-.134.084-.265.177-.397.274l-.24.17-.24.162-.072.048-.103.065-.104.062-.019.01-.033.02-.05.03-.02.012-.053.031-.045.027c-.032.019-.063.038-.093.058-.02.015-.039.031-.055.046.014.032.032.063.054.097l.037.053v.002l.047.056c.03.038.062.075.089.115.039.057.07.12.1.2l.033.093.033.102.01.035c.005.016.01.032.016.044l.032-.018.03-.018.015-.009.02-.012.02-.01.034-.02c.03-.018.06-.035.091-.05.045-.023.091-.044.137-.065l.025-.01.05-.022c.026-.01.051-.02.076-.032l.147-.066.09-.037.099-.037.023-.008.115-.044c.06-.024.112-.043.16-.06l.07-.024.076-.024.019-.006c.049-.014.097-.029.145-.046l.145-.052.144-.055.134-.05.075-.032.027-.012.131-.056c.065-.027.14-.058.208-.096-.031-.03-.062-.061-.095-.09l-.044-.036c-.03-.023-.058-.046-.084-.072-.044-.045-.084-.091-.125-.138-.043-.05-.076-.102-.116-.171l-.09-.147-.031-.05-.03-.05-.03-.05-.022-.037-.024-.037-.024-.035-.032-.046c-.023-.034-.042-.07-.058-.109zm1.215-2.193c-.053-.169-1.404.733-2.362 1.446-.959.714-1.64 1.12-1.568 1.39.768-.628 3.27-2.459 3.93-2.836zm6.577-1.6c-.042 0-.083.002-.124.005-.088.012-.177.032-.272.052-.089.02-.181.043-.292.075-.077.023-.167.05-.254.082l-.054.02-.054.022-.032.012-.129.05-.133.046-.134.045-.067.022-.144.049-.143.05-.043.015c-.132.046-.247.088-.35.129l-.06.023-.06.023-.043.016-.087.033-.087.034-.06.024-.105.042-.105.044-.157.069-.086.037-.13.059-.021.01-.017.008-.086.04c-.086.038-.171.077-.258.114l-.245.104-.245.1-.017.007-.111.046-.112.045-.137.061-.216.104c-.123.059-.247.123-.352.179l-.085.045-.255.136-.1.052-.101.051-.146.076-.058.03-.143.074-.142.077-.032.017c-.045.026-.09.05-.133.08-.057.037-.114.076-.17.115l-.136.102-.137.101-.035.026-.062.046-.056.043-.025.019-.121.09.041.078.05.075.03.04.022.03-.001-.001.058.08.006.01.014.02.028.038c.078.098.168.186.255.271l.107.106.086.099.078.103.025.033.042.057.041.057.018.025.042.057.043.05.044.047.019.02c.016.016.032.034.057.049.045-.01.087-.025.126-.04l.002-.001.003-.001.005-.002.113-.05.106-.054.079-.043.017-.009c.052-.028.104-.056.154-.086.114-.068.229-.132.316-.18l.156-.085.156-.086.038-.021.147-.082.15-.09.065-.043.011-.007c.072-.047.147-.095.217-.146l.06-.045.057-.04.011-.01.012-.008c.13-.095.263-.187.394-.272.118-.078.23-.158.364-.255.083-.062.164-.125.244-.19l.11-.092.02-.017.133-.11c.196-.156.404-.296.563-.4.12-.08.24-.166.345-.242.087-.063.174-.126.262-.186.086-.059.174-.115.261-.171.113-.073.242-.155.36-.24.104-.082.204-.166.307-.256l.159-.14.03-.026.063-.055c.058-.05.114-.098.166-.15.071-.071.136-.142.2-.218l.05-.071c.01-.016.02-.035.028-.053.007-.017.013-.034.018-.057l-.012-.021-.018-.02c-.013-.009-.026-.016-.04-.023-.022-.01-.046-.015-.07-.02l-.084-.006zm-9.99.26c-.051 0-.102.001-.152.005-.133.018-.267.053-.401.104-.156.064-.308.15-.456.256-.022.017-.044.033-.065.052-.018.017-.034.035-.05.054-.062.08-.109.156-.145.233-.03.068-.051.144-.07.239-.01.08-.016.168-.018.275l.003.12.01.12.014.077.023.085c.039.09.089.177.148.26.05.062.1.123.152.182.06.067.11.121.168.17.035.027.066.046.098.062.13.053.277.094.436.122.107.013.194.02.274.02.054.002.104 0 .153-.004.11-.017.214-.056.311-.094.06-.026.114-.05.166-.08.046-.027.09-.056.133-.086l.073-.06c.03-.026.055-.056.086-.093.06-.074.105-.138.141-.21.035-.087.06-.172.077-.259.017-.123.03-.233.02-.347-.017-.126-.053-.259-.11-.408-.024-.055-.046-.1-.07-.143l-.04-.063-.038-.054-.031-.04-.038-.047-.04-.048-.013-.016c-.047-.055-.096-.113-.152-.163-.038-.027-.08-.051-.13-.075-.048-.02-.097-.04-.147-.057-.027-.01-.05-.022-.069-.038l-.025-.025-.078-.016c-.05-.005-.1-.009-.149-.01zm-.124.67c.06 0 .12.012.176.029.08.025.153.067.228.105.013.007.023.016.031.028.028.017.055.037.077.064.015.018.029.036.042.055.035.048.07.097.104.147.041.063.07.139.085.214.02.097.02.191.002.288-.004.02-.008.042-.014.063-.011.038-.024.08-.045.114-.028.042-.058.081-.094.116-.032.03-.066.06-.104.083-.037.023-.078.04-.119.056-.06.023-.125.044-.19.053-.046.007-.094.013-.141.012-.035-.002-.07-.004-.103-.008-.048-.006-.096-.012-.143-.021-.064-.013-.132-.03-.186-.07-.039-.03-.075-.061-.104-.1-.028-.037-.053-.077-.074-.119-.032-.065-.057-.136-.072-.208-.015-.079-.022-.165-.01-.246.006-.048.013-.095.025-.141.014-.056.034-.108.058-.16.032-.068.085-.129.139-.18.05-.047.106-.087.168-.116.034-.015.07-.032.106-.04.038-.01.076-.014.115-.017.014-.001.028-.002.043-.001z" fill="#fff" mask="url(#i)"/></g><g transform="translate(24.411 42.72)"><use fill="#00b0f1" xlink:href="#e"/><path d="m23.323 11.871c-.015.006-.03.014-.044.023h-.013c-.017 0-.035.002-.052.007-.035-.005-.071-.007-.11-.007-.033 0-.066.001-.1.004-.064.006-.128.016-.192.026l-.078.012c-.085.012-.17.024-.254.038-.174.028-.336.045-.497.053l-.046.002c-.077.003-.154.006-.23.011l-.143.011-.094.008c-.384.03-.765.037-1.054.04l-.158.001c-.08.002-.16.003-.241.003l-.123-.001c-.134-.003-.269-.012-.4-.022l-.125-.008c-.102-.007-.203-.017-.304-.027-.075-.008-.15-.016-.224-.022-.07-.005-.14-.012-.209-.019-.099-.01-.197-.02-.296-.026l-.154-.01c-.124-.01-.248-.018-.372-.03-.142-.013-.329-.03-.52-.039-.389-.018-.77-.022-1.091-.024l-1.182-.003-.907.001c-.13 0-.26.01-.388.018l-.118.007c-.15.01-.309.016-.514.022-.169.005-.338.007-.506.008h-.093c-.14.001-.286.001-.43.011l-.021.002c-.154.01-.313.021-.468.04-.19.023-.369.06-.535.11-.086.025-.17.06-.241.09-.082.036-.16.08-.232.129-.08.055-.151.117-.219.188-.048.05-.093.107-.137.162l-.045.056c-.063.077-.124.156-.186.235l-.103.133c-.107.135-.2.267-.286.402l.02-.028c-.093.142-.178.293-.26.439l-.023.04c-.1.176-.192.357-.27.511l-.023.048-.103.2c-.024.042-.046.086-.068.13-.02.037-.038.075-.058.111-.082.154-.169.306-.253.453l-.02.034-.068.116-.077.13c-.042.074-.086.146-.13.219l-.009.015c-.05.082-.098.164-.146.247-.038.066-.077.13-.116.194l-.036.06-.029.047c-.039.063-.078.127-.114.192-.043.076-.084.153-.125.23-.045.088-.102.197-.133.313l-.002.017-.002.018c-.006.025-.006.051 0 .076l.002.015.002.016c.005.02.013.04.022.058.028.064.097.082.118.086.018.003.037.005.056.005.068 0 .133-.022.188-.043.048-.018.094-.044.142-.07.046-.027.09-.058.13-.088.089-.066.172-.142.252-.215.096-.088.188-.184.276-.277.067-.07.134-.141.203-.208.187-.172.385-.333.577-.489l.116-.094c.112-.091.223-.187.34-.295.087-.08.171-.163.256-.246l.095-.094-.025.021.039-.034.038-.035c.045-.043.091-.083.137-.124l.03-.027.076-.069.117-.104c.048-.041.098-.08.148-.118l.04-.033.013-.009c.06-.047.122-.096.188-.135.068-.031.14-.046.213-.06.1-.014.203-.023.304-.027l.072-.001c.076 0 .154.005.229.01h.01l.321.018.095.003c.062.001.126.003.189.01.016.003.031.008.047.014l.008.004.007.016.01.055c.008.104 0 .206-.008.292l-.017.177-.015.152c-.02.203-.027.41-.033.606l-.006.309c-.002.118-.004.235-.008.353-.008.213-.02.42-.037.616l-.011.12-.004.04-.018.144-.016.138-.025.179-.019.13c-.026.204-.037.408-.044.651l-.006.203-.003.1c-.002.081-.007.162-.011.242l-.005.07c-.012.198-.02.41-.026.644l-.004.196c-.003.161-.006.327-.015.491l-.005.082c-.004.089-.009.178-.016.267-.009.106-.018.211-.03.317-.026.222-.06.427-.105.627-.041.186-.096.38-.162.576-.06.173-.131.344-.21.51-.043.09-.085.17-.13.243l-.039.065c-.03.053-.062.105-.094.156-.051.08-.095.146-.144.205-.041.05-.085.097-.128.145l-.04.043c-.08.088-.16.174-.242.26l-.111.12c-.068.072-.128.139-.183.204-.064.075-.123.16-.174.234-.102.148-.205.31-.305.483-.09.158-.175.327-.25.504-.08.188-.16.393-.208.612-.021.096-.03.198-.039.296l-.002.028c-.01.114-.012.22-.004.314.008.096.02.21.052.324.023.086.058.172.105.263.043.08.092.162.161.263.058.085.113.16.167.226.026.032.054.062.083.091.083.087.19.157.32.208.06.025.125.039.188.052l.032.007c.044.01.088.018.132.026.078.015.16.022.254.022s.19-.008.261-.014c.037-.004.073-.01.109-.015l.013-.002.032-.005c.037-.005.075-.011.113-.02.043-.009.085-.02.128-.03.034-.01.067-.023.1-.036l.03-.012c.12-.046.23-.123.33-.199.067-.05.134-.114.206-.194.126-.139.231-.307.332-.469l.005-.008c.049-.078.092-.156.144-.25.047-.087.09-.165.13-.247.08-.167.15-.359.218-.604.056-.197.103-.397.15-.59.035-.15.064-.306.092-.457l.027-.142c.039-.198.067-.397.096-.6.013-.093.023-.193.035-.325.01-.119.018-.226.024-.328l.01-.196c.005-.134.012-.273.021-.409l.044-.622.022-.326.022-.327c.007-.108.014-.216.023-.324l.02-.216.008-.091.018-.183.023-.188c.037-.299.075-.608.106-.913l.004-.027c.02-.19.043-.385.053-.58l.005-.115.01-.202.012-.188.008-.13.021-.313.012-.138.014-.167c.016-.238.024-.475.03-.654.007-.228.01-.453.01-.624l.003-.323c0-.105.004-.207.01-.33.01-.206.019-.412.025-.619.004-.143.014-.287.024-.427.004-.06.009-.121.012-.182.007-.111.012-.223.016-.334l.003-.153c.001-.057.002-.114.005-.172l.005-.006c.022-.018.047-.035.075-.052.102-.046.212-.069.318-.09l.013-.003c.077-.016.154-.032.232-.046.143-.021.3-.036.493-.047.174-.01.345-.022.516-.037.369-.033.734-.041 1.043-.045l.472-.003h.102l.112-.002c.071 0 .164.002.257.015.015.003.03.008.045.013l.017.012c.01.015.014.024.018.032.006.024.01.047.013.07.007.094.006.182 0 .262l-.022.22-.006.056c-.015.125-.034.25-.052.375l-.032.22c-.027.19-.06.388-.097.59-.036.19-.074.381-.113.571l-.011.055c-.017.08-.033.16-.048.241-.018.092-.033.184-.049.276l-.006.035-.049.316-.012.088c-.01.065-.02.13-.028.195-.018.158-.032.32-.046.476l-.015.168c-.04.446-.05.9-.054 1.29-.006.439-.006.885-.007 1.27v1.297c0 .098.004.195.007.293.005.11.01.21.02.31.022.232.048.44.078.634.027.175.063.365.114.598l.008.036.06.274.053.21.025.098c.024.099.05.197.075.296l.017.061c.019.074.038.147.06.22l.032.106c.018.063.037.126.058.188.034.105.07.209.106.307.061.166.132.338.223.541.073.163.163.335.274.527.077.133.182.303.313.446.062.068.129.131.188.187.067.063.137.12.207.17l.016.01c.075.053.152.107.233.146l.098.047c.045.02.091.034.126.043.094.027.19.04.271.05.074.01.16.019.243.022l.114.002c.054 0 .103-.002.15-.006.093-.008.186-.03.264-.05.137-.035.284-.09.461-.172.075-.035.149-.071.222-.107l.021-.01c.077-.037.156-.076.231-.12.167-.1.325-.223.444-.32.14-.113.275-.236.414-.377.054-.055.106-.114.157-.172l.037-.04.057-.064.121-.138c.058-.067.119-.14.175-.217.058-.08.113-.166.17-.26.096-.162.18-.336.25-.517.038-.1.071-.204.1-.293l.037-.116.05-.158c.029-.094.055-.19.081-.286.017-.059.032-.118.046-.178l.03-.114c.048-.187.067-.38.08-.612.013-.203.015-.406.016-.596 0-.103-.013-.178-.043-.242-.034-.073-.1-.123-.198-.149-.037-.01-.077-.015-.124-.015-.038 0-.076.003-.114.006l-.042.003c-.02.002-.04.002-.06.002-.048 0-.098-.003-.147-.006l-.032-.003h-.031c-.065 0-.12.013-.164.04-.037.022-.07.051-.1.088-.019.022-.034.05-.05.076l-.008.014c-.018.03-.032.063-.046.096l-.005.012-.044.104-.013.031-.02.05c-.03.072-.06.146-.093.217-.029.061-.061.121-.093.18l-.036.066c-.035.066-.074.134-.115.2-.042.063-.08.114-.118.16-.038.048-.084.096-.142.153-.228.207-.443.364-.658.478l-.019.009c-.054.025-.11.05-.166.07-.06.023-.126.04-.201.055-.052.006-.095.01-.14.011-.043 0-.082-.003-.127-.008-.043-.009-.086-.02-.13-.035-.043-.013-.084-.034-.124-.054-.044-.023-.077-.043-.108-.064-.04-.028-.08-.06-.122-.096-.063-.066-.124-.142-.19-.24-.093-.154-.182-.318-.272-.502l-.064-.133-.064-.133c-.04-.084-.072-.173-.101-.257-.036-.123-.064-.24-.084-.357-.02-.106-.031-.21-.045-.336-.02-.188-.044-.423-.06-.65-.016-.212-.02-.428-.022-.638v-.015c-.001-.079.001-.158.003-.237l.001-.046.004-.16.005-.161c.005-.211.01-.423.013-.634l.004-.44.002-.219c.002-.166.01-.333.02-.496l.006-.124c.006-.121.014-.242.023-.363l.02-.296.005-.095c.003-.064.007-.127.012-.19.008-.109.016-.213.022-.317l.01-.157c.01-.18.02-.367.037-.55.009-.073.017-.144.03-.214.015-.093.033-.186.055-.281.04-.174.079-.349.12-.522l.04-.17.018-.076c.01-.045.022-.09.034-.135l.031-.124.028-.119.029-.118c.02-.088.036-.18.047-.28l-.005.03c.008-.06.014-.114.014-.17v-.027c.055.02.113.033.172.041.048.007.097.008.145.008h.046l.172.006c.125.005.255.013.388.023l.047.004c.1.007.202.015.303.015l.321.001c.48 0 .846-.007 1.188-.022.13-.006.26-.017.386-.034.058-.007.121-.019.198-.037l.078-.019.013-.003c.11-.026.182-.074.218-.148.028-.058.034-.127.04-.189l.006-.114v-.21l.002-.435v-.761c-.002-.128-.002-.261-.018-.39-.013-.103-.057-.201-.094-.275-.03-.061-.068-.117-.097-.16-.007.026-.01.05-.013.074-.023-.02-.05-.036-.078-.049-.041-.019-.083-.028-.125-.028-.039 0-.079.008-.12.024z" fill="#fff" mask="url(#j)"/></g><g fill="#202e66" fill-rule="nonzero" transform="translate(98.363 19.385)"><path d="m8.867 24.555c1.546 0 2.984-.284 4.314-.853 1.33-.568 2.404-1.387 3.223-2.455.818-1.069 1.228-2.342 1.228-3.82 0-1.16-.17-2.143-.512-2.95-.34-.807-.852-1.478-1.535-2.012-.682-.534-1.54-.972-2.574-1.313-1.035-.341-2.234-.637-3.598-.887-1.046-.204-1.944-.437-2.695-.699-.75-.261-1.324-.614-1.722-1.057s-.596-1.006-.596-1.689c0-.569.17-1.069.512-1.5.341-.433.847-.774 1.518-1.024.67-.25 1.494-.375 2.472-.375.591 0 1.228.097 1.91.29s1.33.432 1.944.716 1.103.585 1.466.904c.273.204.58.307.921.307.523 0 .978-.205 1.364-.614.387-.41.58-.864.58-1.364 0-.682-.33-1.285-.989-1.808-.796-.682-1.825-1.245-3.086-1.688-1.263-.442-2.633-.664-4.112-.664-1.568 0-3 .273-4.296.818-1.296.546-2.325 1.342-3.086 2.388-.762 1.046-1.143 2.307-1.143 3.784 0 .978.16 1.859.478 2.643.318.785.79 1.467 1.415 2.047s1.404 1.057 2.336 1.432 2.012.654 3.24.836c1.296.181 2.364.437 3.206.767.84.33 1.466.733 1.875 1.21.41.478.614 1.058.614 1.74 0 .568-.216 1.074-.648 1.517-.432.444-1 .796-1.705 1.058-.705.261-1.478.392-2.319.392-1.25 0-2.302-.182-3.155-.546-.852-.364-1.71-.898-2.574-1.603-.341-.273-.728-.409-1.16-.409-.568 0-1.04.199-1.415.597-.375.399-.563.859-.563 1.382 0 .318.08.637.239.955s.386.603.682.853c1.16 1 2.376 1.7 3.649 2.097 1.273.398 2.706.597 4.297.597zm22.205-.341c.66 0 1.2-.2 1.62-.597.42-.398.631-.892.631-1.484v-17.87h5.354c.555 0 1.024-.155 1.408-.465l.076-.064c.398-.352.597-.824.597-1.415s-.2-1.069-.597-1.432c-.398-.364-.892-.546-1.484-.546h-15.142c-.59 0-1.085.176-1.483.529-.398.352-.597.824-.597 1.415s.199 1.069.597 1.432c.398.364.892.546 1.483.546h5.354v17.87c0 .557.182 1.028.544 1.413l.07.071c.41.398.933.597 1.57.597zm28.208 0c.59 0 1.085-.182 1.483-.546s.597-.83.597-1.398c0-.523-.199-.983-.597-1.381s-.892-.597-1.483-.597h-9.243v-6.31h7.708c.554 0 1.024-.154 1.408-.464l.076-.064c.398-.352.596-.813.596-1.381 0-.591-.198-1.074-.596-1.45-.398-.375-.893-.562-1.484-.562h-7.708v-5.798h9.243c.554 0 1.023-.155 1.408-.465l.075-.064c.398-.352.597-.812.597-1.38 0-.592-.199-1.075-.597-1.45s-.892-.564-1.483-.564h-11.425c-.591 0-1.086.199-1.484.597-.397.398-.596.892-.596 1.483v19.712c0 .592.199 1.086.596 1.484.398.398.893.597 1.484.597h11.425zm24.422.17c.477 0 .915-.182 1.313-.545.398-.364.597-.853.597-1.467 0-.25-.057-.523-.17-.818l-8.39-19.985c-.16-.432-.415-.768-.768-1.006-.352-.239-.733-.358-1.142-.358-.432-.046-.836.056-1.211.307-.375.25-.654.602-.836 1.057l-8.491 20.394c-.069.227-.103.443-.103.648 0 .5.148.92.444 1.262.295.34.75.511 1.364.511.386 0 .744-.12 1.074-.358.33-.239.574-.574.733-1.006l1.77-4.16h10.169l1.771 4.126c.167.396.396.716.687.959l.08.064c.33.25.7.375 1.109.375zm-5.33-9.446h-6.82l3.395-7.982zm32.276 9.276c.636 0 1.148-.2 1.534-.597.387-.398.58-.892.58-1.484v-19.746c0-.614-.216-1.114-.648-1.5-.432-.387-.92-.58-1.466-.58-.683 0-1.24.307-1.672.92l-7.649 11.428-7.425-11.427c-.163-.246-.396-.45-.698-.613l-.103-.052c-.352-.17-.688-.256-1.006-.256-.591 0-1.097.205-1.518.614-.42.41-.63.898-.63 1.466v19.746c0 .592.181 1.086.545 1.484s.83.597 1.398.597c.591 0 1.069-.2 1.433-.597.363-.398.545-.892.545-1.484v-14.047l5.628 8.898c.179.219.397.411.654.578l.113.07c.307.182.608.261.904.238.318.023.63-.056.937-.238s.563-.398.768-.648l5.627-8.579v13.728c0 .555.175 1.024.525 1.408l.072.076c.398.398.915.597 1.552.597z"/><path d="m1.306 39.513v-2.902h3.029v-.894h-3.03v-2.357h3.66v-.894h-4.605v7.046h.947zm12.762.158c.533 0 1.024-.096 1.472-.29.449-.192.842-.457 1.178-.793.337-.337.598-.728.784-1.173s.278-.92.278-1.425-.092-.98-.278-1.425-.447-.836-.784-1.173c-.336-.336-.729-.601-1.178-.794-.448-.193-.94-.289-1.472-.289-.533 0-1.024.096-1.473.29-.448.192-.84.457-1.177.793-.337.337-.598.728-.784 1.173s-.279.92-.279 1.425.093.98.279 1.425.447.836.784 1.173c.336.336.729.601 1.177.794.45.193.94.29 1.473.29zm0-.925c-.526 0-.996-.121-1.41-.363-.413-.242-.74-.57-.978-.984-.238-.413-.357-.883-.357-1.409s.12-.997.357-1.415c.239-.417.565-.745.979-.983.413-.238.883-.357 1.409-.357s.996.119 1.41.357c.413.238.739.566.977.983.239.418.358.89.358 1.415 0 .526-.12.996-.358 1.41-.238.413-.564.74-.978.983-.413.242-.883.363-1.41.363zm10.29.767v-2.945l3.03 2.945h1.451l-3.281-2.945c.21.014.378.022.504.022.407 0 .802-.076 1.184-.227.382-.15.697-.376.946-.678.25-.301.374-.67.374-1.104 0-.484-.121-.882-.363-1.194s-.549-.543-.92-.694c-.372-.15-.761-.226-1.168-.226h-2.703v7.046h.947zm1.568-3.691c-.267 0-.537-.018-.81-.053-.274-.035-.526-.084-.757-.147v-2.262h1.598c.456 0 .843.105 1.162.315.32.21.479.512.479.905 0 .378-.146.68-.437.904-.29.225-.702.337-1.235.337zm17.941 3.691 3.292-7.046h-1.136l-2.408 5.448-2.377-5.448h-1.136l3.292 7.046zm11.827 0v-.894h-1.189v-5.258h1.189v-.894h-3.324v.894h1.189v5.258h-1.189v.894zm11.09 0v-.894h-3.881v-2.271h3.429v-.894h-3.429v-2.094h3.88v-.894h-4.827v7.046h4.828zm8.482-.031v-6.122h2.43v-.894h-5.806v.894h2.43v6.12h.946zm8.786.031v-5.037l4.575 5.037h.358v-7.046h-.947v5.1l-4.575-5.1h-.357v7.046zm11.28 0 .747-1.682h3.302l.736 1.682h1.136l-3.292-7.046h-.473l-3.292 7.046zm3.66-2.576h-2.524l1.272-2.872zm8.419 2.576v-5.1l2.23 2.324h.252l2.177-2.325v5.101h.946v-7.046h-.294l-2.956 3.229-3.008-3.23h-.294v7.047z" stroke="#202e66" stroke-width=".968"/></g></g></svg>